<?xml version="1.0" encoding="ISO-8859-1" standalone="no"?><svg xmlns="http://www.w3.org/2000/svg" version="1.1" xmlns:xlink="http://www.w3.org/1999/xlink"  >
<svg xmlns="http://www.w3.org/2000/svg" version="1.1" xmlns:xlink="http://www.w3.org/1999/xlink"  >
<g transform="translate(54,0)"  >
<rect style="fill:rgb(255, 255, 255);None" height="50" width="50"  />
<ellipse cy="12.5" cx="12.5" rx="5.0" ry="5.0" style="fill:rgb(253, 210, 67)"  />
<ellipse cy="25.0" cx="12.5" rx="5.0" ry="5.0" style="fill:rgb(253, 210, 67)"  />
<ellipse cy="37.5" cx="12.5" rx="5.0" ry="5.0" style="fill:rgb(253, 210, 67)"  />
<ellipse cy="12.5" cx="37.5" rx="5.0" ry="5.0" style="fill:rgb(253, 210, 67)"  />
<ellipse cy="25.0" cx="37.5" rx="5.0" ry="5.0" style="fill:rgb(253, 210, 67)"  />
<ellipse cy="37.5" cx="37.5" rx="5.0" ry="5.0" style="fill:rgb(253, 210, 67)"  />
<ellipse cy="18.75" cx="25.0" rx="5.0" ry="5.0" style="fill:rgb(253, 210, 67)"  />
<ellipse cy="31.25" cx="25.0" rx="5.0" ry="5.0" style="fill:rgb(253, 210, 67)"  />
</g>
<line y1="0" x2="52.0" style="stroke:rgb(64,64,64);stroke-width:4" x1="52.0" y2="364"  />
<g transform="translate(106,0)"  >
<rect style="fill:rgb(255, 255, 255);None" height="50" width="50"  />
<ellipse cy="12.5" cx="12.5" rx="5.0" ry="5.0" style="fill:rgb(253, 210, 67)"  />
<ellipse cy="25.0" cx="12.5" rx="5.0" ry="5.0" style="fill:rgb(253, 210, 67)"  />
<ellipse cy="37.5" cx="12.5" rx="5.0" ry="5.0" style="fill:rgb(253, 210, 67)"  />
<ellipse cy="12.5" cx="37.5" rx="5.0" ry="5.0" style="fill:rgb(253, 210, 67)"  />
<ellipse cy="25.0" cx="37.5" rx="5.0" ry="5.0" style="fill:rgb(253, 210, 67)"  />
<ellipse cy="37.5" cx="37.5" rx="5.0" ry="5.0" style="fill:rgb(253, 210, 67)"  />
<ellipse cy="18.75" cx="25.0" rx="5.0" ry="5.0" style="fill:rgb(253, 210, 67)"  />
<ellipse cy="31.25" cx="25.0" rx="5.0" ry="5.0" style="fill:rgb(253, 210, 67)"  />
</g>
<line y1="0" x2="105.0" style="stroke:rgb(128,128,128);stroke-width:2" x1="105.0" y2="50"  />
<g transform="translate(158,0)"  >
<rect style="fill:rgb(255, 255, 255);None" height="50" width="50"  />
<ellipse cy="12.5" cx="12.5" rx="5.0" ry="5.0" style="fill:rgb(253, 210, 67)"  />
<ellipse cy="25.0" cx="25.0" rx="5.0" ry="5.0" style="fill:rgb(253, 210, 67)"  />
<ellipse cy="37.5" cx="37.5" rx="5.0" ry="5.0" style="fill:rgb(253, 210, 67)"  />
</g>
<line y1="0" x2="157.0" style="stroke:rgb(128,128,128);stroke-width:2" x1="157.0" y2="50"  />
<g transform="translate(210,0)"  >
<rect style="fill:rgb(255, 255, 255);None" height="50" width="50"  />
<ellipse cy="12.5" cx="12.5" rx="5.0" ry="5.0" style="fill:rgb(253, 210, 67)"  />
<ellipse cy="25.0" cx="25.0" rx="5.0" ry="5.0" style="fill:rgb(253, 210, 67)"  />
<ellipse cy="37.5" cx="37.5" rx="5.0" ry="5.0" style="fill:rgb(253, 210, 67)"  />
</g>
<line y1="0" x2="209.0" style="stroke:rgb(128,128,128);stroke-width:2" x1="209.0" y2="50"  />
<g transform="translate(262,0)"  >
<rect style="fill:rgb(255, 255, 255);None" height="50" width="50"  />
<ellipse cy="12.5" cx="12.5" rx="5.0" ry="5.0" style="fill:rgb(253, 210, 67)"  />
<ellipse cy="25.0" cx="25.0" rx="5.0" ry="5.0" style="fill:rgb(253, 210, 67)"  />
<ellipse cy="37.5" cx="37.5" rx="5.0" ry="5.0" style="fill:rgb(253, 210, 67)"  />
</g>
<line y1="0" x2="261.0" style="stroke:rgb(128,128,128);stroke-width:2" x1="261.0" y2="50"  />
<g transform="translate(314,0)"  >
<rect style="fill:rgb(255, 255, 255);None" height="50" width="50"  />
<ellipse cy="12.5" cx="12.5" rx="5.0" ry="5.0" style="fill:rgb(253, 210, 67)"  />
<ellipse cy="25.0" cx="25.0" rx="5.0" ry="5.0" style="fill:rgb(253, 210, 67)"  />
<ellipse cy="37.5" cx="37.5" rx="5.0" ry="5.0" style="fill:rgb(253, 210, 67)"  />
</g>
<line y1="0" x2="313.0" style="stroke:rgb(128,128,128);stroke-width:2" x1="313.0" y2="50"  />
<g transform="translate(0,54)"  >
<rect style="fill:rgb(255, 255, 255);None" height="50" width="50"  />
<ellipse cy="12.5" cx="12.5" rx="5.0" ry="5.0" style="fill:rgb(37, 120, 233)"  />
<ellipse cy="37.5" cx="37.5" rx="5.0" ry="5.0" style="fill:rgb(37, 120, 233)"  />
</g>
<line y1="52.0" x2="364" style="stroke:rgb(64,64,64);stroke-width:4" x1="0" y2="52.0"  />
<g transform="translate(0,106)"  >
<rect style="fill:rgb(255, 255, 255);None" height="50" width="50"  />
<ellipse cy="12.5" cx="12.5" rx="5.0" ry="5.0" style="fill:rgb(37, 120, 233)"  />
<ellipse cy="37.5" cx="37.5" rx="5.0" ry="5.0" style="fill:rgb(37, 120, 233)"  />
</g>
<line y1="105.0" x2="50" style="stroke:rgb(128,128,128);stroke-width:2" x1="0" y2="105.0"  />
<g transform="translate(0,158)"  >
<rect style="fill:rgb(255, 255, 255);None" height="50" width="50"  />
<ellipse cy="12.5" cx="12.5" rx="5.0" ry="5.0" style="fill:rgb(37, 120, 233)"  />
<ellipse cy="37.5" cx="37.5" rx="5.0" ry="5.0" style="fill:rgb(37, 120, 233)"  />
</g>
<line y1="157.0" x2="50" style="stroke:rgb(128,128,128);stroke-width:2" x1="0" y2="157.0"  />
<g transform="translate(0,210)"  >
<rect style="fill:rgb(255, 255, 255);None" height="50" width="50"  />
<ellipse cy="12.5" cx="12.5" rx="5.0" ry="5.0" style="fill:rgb(37, 120, 233)"  />
<ellipse cy="25.0" cx="12.5" rx="5.0" ry="5.0" style="fill:rgb(37, 120, 233)"  />
<ellipse cy="37.5" cx="12.5" rx="5.0" ry="5.0" style="fill:rgb(37, 120, 233)"  />
<ellipse cy="12.5" cx="37.5" rx="5.0" ry="5.0" style="fill:rgb(37, 120, 233)"  />
<ellipse cy="25.0" cx="37.5" rx="5.0" ry="5.0" style="fill:rgb(37, 120, 233)"  />
<ellipse cy="37.5" cx="37.5" rx="5.0" ry="5.0" style="fill:rgb(37, 120, 233)"  />
<ellipse cy="25.0" cx="25.0" rx="5.0" ry="5.0" style="fill:rgb(37, 120, 233)"  />
</g>
<line y1="209.0" x2="50" style="stroke:rgb(128,128,128);stroke-width:2" x1="0" y2="209.0"  />
<g transform="translate(0,262)"  >
<rect style="fill:rgb(255, 255, 255);None" height="50" width="50"  />
<ellipse cy="12.5" cx="12.5" rx="5.0" ry="5.0" style="fill:rgb(37, 120, 233)"  />
<ellipse cy="25.0" cx="12.5" rx="5.0" ry="5.0" style="fill:rgb(37, 120, 233)"  />
<ellipse cy="37.5" cx="12.5" rx="5.0" ry="5.0" style="fill:rgb(37, 120, 233)"  />
<ellipse cy="12.5" cx="37.5" rx="5.0" ry="5.0" style="fill:rgb(37, 120, 233)"  />
<ellipse cy="25.0" cx="37.5" rx="5.0" ry="5.0" style="fill:rgb(37, 120, 233)"  />
<ellipse cy="37.5" cx="37.5" rx="5.0" ry="5.0" style="fill:rgb(37, 120, 233)"  />
<ellipse cy="25.0" cx="25.0" rx="5.0" ry="5.0" style="fill:rgb(37, 120, 233)"  />
</g>
<line y1="261.0" x2="50" style="stroke:rgb(128,128,128);stroke-width:2" x1="0" y2="261.0"  />
<g transform="translate(0,314)"  >
<rect style="fill:rgb(255, 255, 255);None" height="50" width="50"  />
<ellipse cy="12.5" cx="12.5" rx="5.0" ry="5.0" style="fill:rgb(37, 120, 233)"  />
<ellipse cy="25.0" cx="12.5" rx="5.0" ry="5.0" style="fill:rgb(37, 120, 233)"  />
<ellipse cy="37.5" cx="12.5" rx="5.0" ry="5.0" style="fill:rgb(37, 120, 233)"  />
<ellipse cy="12.5" cx="37.5" rx="5.0" ry="5.0" style="fill:rgb(37, 120, 233)"  />
<ellipse cy="25.0" cx="37.5" rx="5.0" ry="5.0" style="fill:rgb(37, 120, 233)"  />
<ellipse cy="37.5" cx="37.5" rx="5.0" ry="5.0" style="fill:rgb(37, 120, 233)"  />
<ellipse cy="25.0" cx="25.0" rx="5.0" ry="5.0" style="fill:rgb(37, 120, 233)"  />
</g>
<line y1="313.0" x2="50" style="stroke:rgb(128,128,128);stroke-width:2" x1="0" y2="313.0"  />
<g transform="translate(54,54)"  >
<rect style="fill:rgb(253, 210, 67);None" height="50" width="50"  />
<ellipse cy="12.5" cx="12.5" rx="5.0" ry="5.0" style="fill:rgb(255, 255, 255)"  />
<ellipse cy="25.0" cx="12.5" rx="5.0" ry="5.0" style="fill:rgb(255, 255, 255)"  />
<ellipse cy="37.5" cx="12.5" rx="5.0" ry="5.0" style="fill:rgb(255, 255, 255)"  />
<ellipse cy="12.5" cx="37.5" rx="5.0" ry="5.0" style="fill:rgb(255, 255, 255)"  />
<ellipse cy="25.0" cx="37.5" rx="5.0" ry="5.0" style="fill:rgb(255, 255, 255)"  />
<ellipse cy="37.5" cx="37.5" rx="5.0" ry="5.0" style="fill:rgb(255, 255, 255)"  />
<ellipse cy="18.75" cx="25.0" rx="5.0" ry="5.0" style="fill:rgb(255, 255, 255)"  />
<ellipse cy="31.25" cx="25.0" rx="5.0" ry="5.0" style="fill:rgb(255, 255, 255)"  />
</g>
<g transform="translate(54,106)"  >
<rect style="fill:rgb(253, 210, 67);None" height="50" width="50"  />
<ellipse cy="12.5" cx="12.5" rx="5.0" ry="5.0" style="fill:rgb(255, 255, 255)"  />
<ellipse cy="25.0" cx="12.5" rx="5.0" ry="5.0" style="fill:rgb(255, 255, 255)"  />
<ellipse cy="37.5" cx="12.5" rx="5.0" ry="5.0" style="fill:rgb(255, 255, 255)"  />
<ellipse cy="12.5" cx="37.5" rx="5.0" ry="5.0" style="fill:rgb(255, 255, 255)"  />
<ellipse cy="25.0" cx="37.5" rx="5.0" ry="5.0" style="fill:rgb(255, 255, 255)"  />
<ellipse cy="37.5" cx="37.5" rx="5.0" ry="5.0" style="fill:rgb(255, 255, 255)"  />
<ellipse cy="18.75" cx="25.0" rx="5.0" ry="5.0" style="fill:rgb(255, 255, 255)"  />
<ellipse cy="31.25" cx="25.0" rx="5.0" ry="5.0" style="fill:rgb(255, 255, 255)"  />
</g>
<g transform="translate(54,158)"  >
<rect style="fill:rgb(253, 210, 67);None" height="50" width="50"  />
<ellipse cy="12.5" cx="12.5" rx="5.0" ry="5.0" style="fill:rgb(255, 255, 255)"  />
<ellipse cy="25.0" cx="12.5" rx="5.0" ry="5.0" style="fill:rgb(255, 255, 255)"  />
<ellipse cy="37.5" cx="12.5" rx="5.0" ry="5.0" style="fill:rgb(255, 255, 255)"  />
<ellipse cy="12.5" cx="37.5" rx="5.0" ry="5.0" style="fill:rgb(255, 255, 255)"  />
<ellipse cy="25.0" cx="37.5" rx="5.0" ry="5.0" style="fill:rgb(255, 255, 255)"  />
<ellipse cy="37.5" cx="37.5" rx="5.0" ry="5.0" style="fill:rgb(255, 255, 255)"  />
<ellipse cy="18.75" cx="25.0" rx="5.0" ry="5.0" style="fill:rgb(255, 255, 255)"  />
<ellipse cy="31.25" cx="25.0" rx="5.0" ry="5.0" style="fill:rgb(255, 255, 255)"  />
</g>
<g transform="translate(54,210)"  >
<rect style="fill:rgb(253, 210, 67);None" height="50" width="50"  />
<ellipse cy="12.5" cx="12.5" rx="5.0" ry="5.0" style="fill:rgb(255, 255, 255)"  />
<ellipse cy="25.0" cx="12.5" rx="5.0" ry="5.0" style="fill:rgb(255, 255, 255)"  />
<ellipse cy="37.5" cx="12.5" rx="5.0" ry="5.0" style="fill:rgb(255, 255, 255)"  />
<ellipse cy="12.5" cx="37.5" rx="5.0" ry="5.0" style="fill:rgb(255, 255, 255)"  />
<ellipse cy="25.0" cx="37.5" rx="5.0" ry="5.0" style="fill:rgb(255, 255, 255)"  />
<ellipse cy="37.5" cx="37.5" rx="5.0" ry="5.0" style="fill:rgb(255, 255, 255)"  />
<ellipse cy="18.75" cx="25.0" rx="5.0" ry="5.0" style="fill:rgb(255, 255, 255)"  />
<ellipse cy="31.25" cx="25.0" rx="5.0" ry="5.0" style="fill:rgb(255, 255, 255)"  />
</g>
<g transform="translate(54,262)"  >
<rect style="fill:rgb(253, 210, 67);None" height="50" width="50"  />
<ellipse cy="12.5" cx="12.5" rx="5.0" ry="5.0" style="fill:rgb(255, 255, 255)"  />
<ellipse cy="25.0" cx="12.5" rx="5.0" ry="5.0" style="fill:rgb(255, 255, 255)"  />
<ellipse cy="37.5" cx="12.5" rx="5.0" ry="5.0" style="fill:rgb(255, 255, 255)"  />
<ellipse cy="12.5" cx="37.5" rx="5.0" ry="5.0" style="fill:rgb(255, 255, 255)"  />
<ellipse cy="25.0" cx="37.5" rx="5.0" ry="5.0" style="fill:rgb(255, 255, 255)"  />
<ellipse cy="37.5" cx="37.5" rx="5.0" ry="5.0" style="fill:rgb(255, 255, 255)"  />
<ellipse cy="18.75" cx="25.0" rx="5.0" ry="5.0" style="fill:rgb(255, 255, 255)"  />
<ellipse cy="31.25" cx="25.0" rx="5.0" ry="5.0" style="fill:rgb(255, 255, 255)"  />
</g>
<g transform="translate(54,314)"  >
<rect style="fill:rgb(253, 210, 67);None" height="50" width="50"  />
<ellipse cy="12.5" cx="12.5" rx="5.0" ry="5.0" style="fill:rgb(255, 255, 255)"  />
<ellipse cy="25.0" cx="12.5" rx="5.0" ry="5.0" style="fill:rgb(255, 255, 255)"  />
<ellipse cy="37.5" cx="12.5" rx="5.0" ry="5.0" style="fill:rgb(255, 255, 255)"  />
<ellipse cy="12.5" cx="37.5" rx="5.0" ry="5.0" style="fill:rgb(255, 255, 255)"  />
<ellipse cy="25.0" cx="37.5" rx="5.0" ry="5.0" style="fill:rgb(255, 255, 255)"  />
<ellipse cy="37.5" cx="37.5" rx="5.0" ry="5.0" style="fill:rgb(255, 255, 255)"  />
<ellipse cy="18.75" cx="25.0" rx="5.0" ry="5.0" style="fill:rgb(255, 255, 255)"  />
<ellipse cy="31.25" cx="25.0" rx="5.0" ry="5.0" style="fill:rgb(255, 255, 255)"  />
</g>
<g transform="translate(106,54)"  >
<rect style="fill:rgb(253, 210, 67);None" height="50" width="50"  />
<ellipse cy="12.5" cx="12.5" rx="5.0" ry="5.0" style="fill:rgb(255, 255, 255)"  />
<ellipse cy="25.0" cx="12.5" rx="5.0" ry="5.0" style="fill:rgb(255, 255, 255)"  />
<ellipse cy="37.5" cx="12.5" rx="5.0" ry="5.0" style="fill:rgb(255, 255, 255)"  />
<ellipse cy="12.5" cx="37.5" rx="5.0" ry="5.0" style="fill:rgb(255, 255, 255)"  />
<ellipse cy="25.0" cx="37.5" rx="5.0" ry="5.0" style="fill:rgb(255, 255, 255)"  />
<ellipse cy="37.5" cx="37.5" rx="5.0" ry="5.0" style="fill:rgb(255, 255, 255)"  />
<ellipse cy="18.75" cx="25.0" rx="5.0" ry="5.0" style="fill:rgb(255, 255, 255)"  />
<ellipse cy="31.25" cx="25.0" rx="5.0" ry="5.0" style="fill:rgb(255, 255, 255)"  />
</g>
<g transform="translate(106,106)"  >
<rect style="fill:rgb(253, 210, 67);None" height="50" width="50"  />
<ellipse cy="12.5" cx="12.5" rx="5.0" ry="5.0" style="fill:rgb(255, 255, 255)"  />
<ellipse cy="25.0" cx="12.5" rx="5.0" ry="5.0" style="fill:rgb(255, 255, 255)"  />
<ellipse cy="37.5" cx="12.5" rx="5.0" ry="5.0" style="fill:rgb(255, 255, 255)"  />
<ellipse cy="12.5" cx="37.5" rx="5.0" ry="5.0" style="fill:rgb(255, 255, 255)"  />
<ellipse cy="25.0" cx="37.5" rx="5.0" ry="5.0" style="fill:rgb(255, 255, 255)"  />
<ellipse cy="37.5" cx="37.5" rx="5.0" ry="5.0" style="fill:rgb(255, 255, 255)"  />
<ellipse cy="18.75" cx="25.0" rx="5.0" ry="5.0" style="fill:rgb(255, 255, 255)"  />
<ellipse cy="31.25" cx="25.0" rx="5.0" ry="5.0" style="fill:rgb(255, 255, 255)"  />
</g>
<g transform="translate(106,158)"  >
<rect style="fill:rgb(253, 210, 67);None" height="50" width="50"  />
<ellipse cy="12.5" cx="12.5" rx="5.0" ry="5.0" style="fill:rgb(255, 255, 255)"  />
<ellipse cy="25.0" cx="12.5" rx="5.0" ry="5.0" style="fill:rgb(255, 255, 255)"  />
<ellipse cy="37.5" cx="12.5" rx="5.0" ry="5.0" style="fill:rgb(255, 255, 255)"  />
<ellipse cy="12.5" cx="37.5" rx="5.0" ry="5.0" style="fill:rgb(255, 255, 255)"  />
<ellipse cy="25.0" cx="37.5" rx="5.0" ry="5.0" style="fill:rgb(255, 255, 255)"  />
<ellipse cy="37.5" cx="37.5" rx="5.0" ry="5.0" style="fill:rgb(255, 255, 255)"  />
<ellipse cy="18.75" cx="25.0" rx="5.0" ry="5.0" style="fill:rgb(255, 255, 255)"  />
<ellipse cy="31.25" cx="25.0" rx="5.0" ry="5.0" style="fill:rgb(255, 255, 255)"  />
</g>
<g transform="translate(106,210)"  >
<rect style="fill:rgb(253, 210, 67);None" height="50" width="50"  />
<ellipse cy="12.5" cx="12.5" rx="5.0" ry="5.0" style="fill:rgb(255, 255, 255)"  />
<ellipse cy="25.0" cx="12.5" rx="5.0" ry="5.0" style="fill:rgb(255, 255, 255)"  />
<ellipse cy="37.5" cx="12.5" rx="5.0" ry="5.0" style="fill:rgb(255, 255, 255)"  />
<ellipse cy="12.5" cx="37.5" rx="5.0" ry="5.0" style="fill:rgb(255, 255, 255)"  />
<ellipse cy="25.0" cx="37.5" rx="5.0" ry="5.0" style="fill:rgb(255, 255, 255)"  />
<ellipse cy="37.5" cx="37.5" rx="5.0" ry="5.0" style="fill:rgb(255, 255, 255)"  />
<ellipse cy="18.75" cx="25.0" rx="5.0" ry="5.0" style="fill:rgb(255, 255, 255)"  />
<ellipse cy="31.25" cx="25.0" rx="5.0" ry="5.0" style="fill:rgb(255, 255, 255)"  />
</g>
<g transform="translate(106,262)"  >
<rect style="fill:rgb(253, 210, 67);None" height="50" width="50"  />
<ellipse cy="12.5" cx="12.5" rx="5.0" ry="5.0" style="fill:rgb(255, 255, 255)"  />
<ellipse cy="25.0" cx="12.5" rx="5.0" ry="5.0" style="fill:rgb(255, 255, 255)"  />
<ellipse cy="37.5" cx="12.5" rx="5.0" ry="5.0" style="fill:rgb(255, 255, 255)"  />
<ellipse cy="12.5" cx="37.5" rx="5.0" ry="5.0" style="fill:rgb(255, 255, 255)"  />
<ellipse cy="25.0" cx="37.5" rx="5.0" ry="5.0" style="fill:rgb(255, 255, 255)"  />
<ellipse cy="37.5" cx="37.5" rx="5.0" ry="5.0" style="fill:rgb(255, 255, 255)"  />
<ellipse cy="18.75" cx="25.0" rx="5.0" ry="5.0" style="fill:rgb(255, 255, 255)"  />
<ellipse cy="31.25" cx="25.0" rx="5.0" ry="5.0" style="fill:rgb(255, 255, 255)"  />
</g>
<g transform="translate(106,314)"  >
<rect style="fill:rgb(253, 210, 67);None" height="50" width="50"  />
<ellipse cy="12.5" cx="12.5" rx="5.0" ry="5.0" style="fill:rgb(255, 255, 255)"  />
<ellipse cy="25.0" cx="12.5" rx="5.0" ry="5.0" style="fill:rgb(255, 255, 255)"  />
<ellipse cy="37.5" cx="12.5" rx="5.0" ry="5.0" style="fill:rgb(255, 255, 255)"  />
<ellipse cy="12.5" cx="37.5" rx="5.0" ry="5.0" style="fill:rgb(255, 255, 255)"  />
<ellipse cy="25.0" cx="37.5" rx="5.0" ry="5.0" style="fill:rgb(255, 255, 255)"  />
<ellipse cy="37.5" cx="37.5" rx="5.0" ry="5.0" style="fill:rgb(255, 255, 255)"  />
<ellipse cy="18.75" cx="25.0" rx="5.0" ry="5.0" style="fill:rgb(255, 255, 255)"  />
<ellipse cy="31.25" cx="25.0" rx="5.0" ry="5.0" style="fill:rgb(255, 255, 255)"  />
</g>
<g transform="translate(158,54)"  >
<rect style="fill:rgb(253, 210, 67);None" height="50" width="50"  />
<ellipse cy="12.5" cx="12.5" rx="5.0" ry="5.0" style="fill:rgb(255, 255, 255)"  />
<ellipse cy="25.0" cx="25.0" rx="5.0" ry="5.0" style="fill:rgb(255, 255, 255)"  />
<ellipse cy="37.5" cx="37.5" rx="5.0" ry="5.0" style="fill:rgb(255, 255, 255)"  />
</g>
<g transform="translate(158,106)"  >
<rect style="fill:rgb(253, 210, 67);None" height="50" width="50"  />
<ellipse cy="12.5" cx="12.5" rx="5.0" ry="5.0" style="fill:rgb(255, 255, 255)"  />
<ellipse cy="25.0" cx="25.0" rx="5.0" ry="5.0" style="fill:rgb(255, 255, 255)"  />
<ellipse cy="37.5" cx="37.5" rx="5.0" ry="5.0" style="fill:rgb(255, 255, 255)"  />
</g>
<g transform="translate(158,158)"  >
<rect style="fill:rgb(253, 210, 67);None" height="50" width="50"  />
<ellipse cy="12.5" cx="12.5" rx="5.0" ry="5.0" style="fill:rgb(255, 255, 255)"  />
<ellipse cy="25.0" cx="25.0" rx="5.0" ry="5.0" style="fill:rgb(255, 255, 255)"  />
<ellipse cy="37.5" cx="37.5" rx="5.0" ry="5.0" style="fill:rgb(255, 255, 255)"  />
</g>
<g transform="translate(158,210)"  >
<rect style="fill:rgb(37, 120, 233);None" height="50" width="50"  />
<ellipse cy="12.5" cx="12.5" rx="5.0" ry="5.0" style="fill:rgb(255, 255, 255)"  />
<ellipse cy="25.0" cx="12.5" rx="5.0" ry="5.0" style="fill:rgb(255, 255, 255)"  />
<ellipse cy="37.5" cx="12.5" rx="5.0" ry="5.0" style="fill:rgb(255, 255, 255)"  />
<ellipse cy="12.5" cx="37.5" rx="5.0" ry="5.0" style="fill:rgb(255, 255, 255)"  />
<ellipse cy="25.0" cx="37.5" rx="5.0" ry="5.0" style="fill:rgb(255, 255, 255)"  />
<ellipse cy="37.5" cx="37.5" rx="5.0" ry="5.0" style="fill:rgb(255, 255, 255)"  />
<ellipse cy="25.0" cx="25.0" rx="5.0" ry="5.0" style="fill:rgb(255, 255, 255)"  />
</g>
<g transform="translate(158,262)"  >
<rect style="fill:rgb(37, 120, 233);None" height="50" width="50"  />
<ellipse cy="12.5" cx="12.5" rx="5.0" ry="5.0" style="fill:rgb(255, 255, 255)"  />
<ellipse cy="25.0" cx="12.5" rx="5.0" ry="5.0" style="fill:rgb(255, 255, 255)"  />
<ellipse cy="37.5" cx="12.5" rx="5.0" ry="5.0" style="fill:rgb(255, 255, 255)"  />
<ellipse cy="12.5" cx="37.5" rx="5.0" ry="5.0" style="fill:rgb(255, 255, 255)"  />
<ellipse cy="25.0" cx="37.5" rx="5.0" ry="5.0" style="fill:rgb(255, 255, 255)"  />
<ellipse cy="37.5" cx="37.5" rx="5.0" ry="5.0" style="fill:rgb(255, 255, 255)"  />
<ellipse cy="25.0" cx="25.0" rx="5.0" ry="5.0" style="fill:rgb(255, 255, 255)"  />
</g>
<g transform="translate(158,314)"  >
<rect style="fill:rgb(37, 120, 233);None" height="50" width="50"  />
<ellipse cy="12.5" cx="12.5" rx="5.0" ry="5.0" style="fill:rgb(255, 255, 255)"  />
<ellipse cy="25.0" cx="12.5" rx="5.0" ry="5.0" style="fill:rgb(255, 255, 255)"  />
<ellipse cy="37.5" cx="12.5" rx="5.0" ry="5.0" style="fill:rgb(255, 255, 255)"  />
<ellipse cy="12.5" cx="37.5" rx="5.0" ry="5.0" style="fill:rgb(255, 255, 255)"  />
<ellipse cy="25.0" cx="37.5" rx="5.0" ry="5.0" style="fill:rgb(255, 255, 255)"  />
<ellipse cy="37.5" cx="37.5" rx="5.0" ry="5.0" style="fill:rgb(255, 255, 255)"  />
<ellipse cy="25.0" cx="25.0" rx="5.0" ry="5.0" style="fill:rgb(255, 255, 255)"  />
</g>
<g transform="translate(210,54)"  >
<rect style="fill:rgb(253, 210, 67);None" height="50" width="50"  />
<ellipse cy="12.5" cx="12.5" rx="5.0" ry="5.0" style="fill:rgb(255, 255, 255)"  />
<ellipse cy="25.0" cx="25.0" rx="5.0" ry="5.0" style="fill:rgb(255, 255, 255)"  />
<ellipse cy="37.5" cx="37.5" rx="5.0" ry="5.0" style="fill:rgb(255, 255, 255)"  />
</g>
<g transform="translate(210,106)"  >
<rect style="fill:rgb(253, 210, 67);None" height="50" width="50"  />
<ellipse cy="12.5" cx="12.5" rx="5.0" ry="5.0" style="fill:rgb(255, 255, 255)"  />
<ellipse cy="25.0" cx="25.0" rx="5.0" ry="5.0" style="fill:rgb(255, 255, 255)"  />
<ellipse cy="37.5" cx="37.5" rx="5.0" ry="5.0" style="fill:rgb(255, 255, 255)"  />
</g>
<g transform="translate(210,158)"  >
<rect style="fill:rgb(253, 210, 67);None" height="50" width="50"  />
<ellipse cy="12.5" cx="12.5" rx="5.0" ry="5.0" style="fill:rgb(255, 255, 255)"  />
<ellipse cy="25.0" cx="25.0" rx="5.0" ry="5.0" style="fill:rgb(255, 255, 255)"  />
<ellipse cy="37.5" cx="37.5" rx="5.0" ry="5.0" style="fill:rgb(255, 255, 255)"  />
</g>
<g transform="translate(210,210)"  >
<rect style="fill:rgb(37, 120, 233);None" height="50" width="50"  />
<ellipse cy="12.5" cx="12.5" rx="5.0" ry="5.0" style="fill:rgb(255, 255, 255)"  />
<ellipse cy="25.0" cx="12.5" rx="5.0" ry="5.0" style="fill:rgb(255, 255, 255)"  />
<ellipse cy="37.5" cx="12.5" rx="5.0" ry="5.0" style="fill:rgb(255, 255, 255)"  />
<ellipse cy="12.5" cx="37.5" rx="5.0" ry="5.0" style="fill:rgb(255, 255, 255)"  />
<ellipse cy="25.0" cx="37.5" rx="5.0" ry="5.0" style="fill:rgb(255, 255, 255)"  />
<ellipse cy="37.5" cx="37.5" rx="5.0" ry="5.0" style="fill:rgb(255, 255, 255)"  />
<ellipse cy="25.0" cx="25.0" rx="5.0" ry="5.0" style="fill:rgb(255, 255, 255)"  />
</g>
<g transform="translate(210,262)"  >
<rect style="fill:rgb(37, 120, 233);None" height="50" width="50"  />
<ellipse cy="12.5" cx="12.5" rx="5.0" ry="5.0" style="fill:rgb(255, 255, 255)"  />
<ellipse cy="25.0" cx="12.5" rx="5.0" ry="5.0" style="fill:rgb(255, 255, 255)"  />
<ellipse cy="37.5" cx="12.5" rx="5.0" ry="5.0" style="fill:rgb(255, 255, 255)"  />
<ellipse cy="12.5" cx="37.5" rx="5.0" ry="5.0" style="fill:rgb(255, 255, 255)"  />
<ellipse cy="25.0" cx="37.5" rx="5.0" ry="5.0" style="fill:rgb(255, 255, 255)"  />
<ellipse cy="37.5" cx="37.5" rx="5.0" ry="5.0" style="fill:rgb(255, 255, 255)"  />
<ellipse cy="25.0" cx="25.0" rx="5.0" ry="5.0" style="fill:rgb(255, 255, 255)"  />
</g>
<g transform="translate(210,314)"  >
<rect style="fill:rgb(37, 120, 233);None" height="50" width="50"  />
<ellipse cy="12.5" cx="12.5" rx="5.0" ry="5.0" style="fill:rgb(255, 255, 255)"  />
<ellipse cy="25.0" cx="12.5" rx="5.0" ry="5.0" style="fill:rgb(255, 255, 255)"  />
<ellipse cy="37.5" cx="12.5" rx="5.0" ry="5.0" style="fill:rgb(255, 255, 255)"  />
<ellipse cy="12.5" cx="37.5" rx="5.0" ry="5.0" style="fill:rgb(255, 255, 255)"  />
<ellipse cy="25.0" cx="37.5" rx="5.0" ry="5.0" style="fill:rgb(255, 255, 255)"  />
<ellipse cy="37.5" cx="37.5" rx="5.0" ry="5.0" style="fill:rgb(255, 255, 255)"  />
<ellipse cy="25.0" cx="25.0" rx="5.0" ry="5.0" style="fill:rgb(255, 255, 255)"  />
</g>
<g transform="translate(262,54)"  >
<rect style="fill:rgb(253, 210, 67);None" height="50" width="50"  />
<ellipse cy="12.5" cx="12.5" rx="5.0" ry="5.0" style="fill:rgb(255, 255, 255)"  />
<ellipse cy="25.0" cx="25.0" rx="5.0" ry="5.0" style="fill:rgb(255, 255, 255)"  />
<ellipse cy="37.5" cx="37.5" rx="5.0" ry="5.0" style="fill:rgb(255, 255, 255)"  />
</g>
<g transform="translate(262,106)"  >
<rect style="fill:rgb(253, 210, 67);None" height="50" width="50"  />
<ellipse cy="12.5" cx="12.5" rx="5.0" ry="5.0" style="fill:rgb(255, 255, 255)"  />
<ellipse cy="25.0" cx="25.0" rx="5.0" ry="5.0" style="fill:rgb(255, 255, 255)"  />
<ellipse cy="37.5" cx="37.5" rx="5.0" ry="5.0" style="fill:rgb(255, 255, 255)"  />
</g>
<g transform="translate(262,158)"  >
<rect style="fill:rgb(253, 210, 67);None" height="50" width="50"  />
<ellipse cy="12.5" cx="12.5" rx="5.0" ry="5.0" style="fill:rgb(255, 255, 255)"  />
<ellipse cy="25.0" cx="25.0" rx="5.0" ry="5.0" style="fill:rgb(255, 255, 255)"  />
<ellipse cy="37.5" cx="37.5" rx="5.0" ry="5.0" style="fill:rgb(255, 255, 255)"  />
</g>
<g transform="translate(262,210)"  >
<rect style="fill:rgb(37, 120, 233);None" height="50" width="50"  />
<ellipse cy="12.5" cx="12.5" rx="5.0" ry="5.0" style="fill:rgb(255, 255, 255)"  />
<ellipse cy="25.0" cx="12.5" rx="5.0" ry="5.0" style="fill:rgb(255, 255, 255)"  />
<ellipse cy="37.5" cx="12.5" rx="5.0" ry="5.0" style="fill:rgb(255, 255, 255)"  />
<ellipse cy="12.5" cx="37.5" rx="5.0" ry="5.0" style="fill:rgb(255, 255, 255)"  />
<ellipse cy="25.0" cx="37.5" rx="5.0" ry="5.0" style="fill:rgb(255, 255, 255)"  />
<ellipse cy="37.5" cx="37.5" rx="5.0" ry="5.0" style="fill:rgb(255, 255, 255)"  />
<ellipse cy="25.0" cx="25.0" rx="5.0" ry="5.0" style="fill:rgb(255, 255, 255)"  />
</g>
<g transform="translate(262,262)"  >
<rect style="fill:rgb(37, 120, 233);None" height="50" width="50"  />
<ellipse cy="12.5" cx="12.5" rx="5.0" ry="5.0" style="fill:rgb(255, 255, 255)"  />
<ellipse cy="25.0" cx="12.5" rx="5.0" ry="5.0" style="fill:rgb(255, 255, 255)"  />
<ellipse cy="37.5" cx="12.5" rx="5.0" ry="5.0" style="fill:rgb(255, 255, 255)"  />
<ellipse cy="12.5" cx="37.5" rx="5.0" ry="5.0" style="fill:rgb(255, 255, 255)"  />
<ellipse cy="25.0" cx="37.5" rx="5.0" ry="5.0" style="fill:rgb(255, 255, 255)"  />
<ellipse cy="37.5" cx="37.5" rx="5.0" ry="5.0" style="fill:rgb(255, 255, 255)"  />
<ellipse cy="25.0" cx="25.0" rx="5.0" ry="5.0" style="fill:rgb(255, 255, 255)"  />
</g>
<g transform="translate(262,314)"  >
<rect style="fill:rgb(37, 120, 233);None" height="50" width="50"  />
<ellipse cy="12.5" cx="12.5" rx="5.0" ry="5.0" style="fill:rgb(255, 255, 255)"  />
<ellipse cy="25.0" cx="12.5" rx="5.0" ry="5.0" style="fill:rgb(255, 255, 255)"  />
<ellipse cy="37.5" cx="12.5" rx="5.0" ry="5.0" style="fill:rgb(255, 255, 255)"  />
<ellipse cy="12.5" cx="37.5" rx="5.0" ry="5.0" style="fill:rgb(255, 255, 255)"  />
<ellipse cy="25.0" cx="37.5" rx="5.0" ry="5.0" style="fill:rgb(255, 255, 255)"  />
<ellipse cy="37.5" cx="37.5" rx="5.0" ry="5.0" style="fill:rgb(255, 255, 255)"  />
<ellipse cy="25.0" cx="25.0" rx="5.0" ry="5.0" style="fill:rgb(255, 255, 255)"  />
</g>
<g transform="translate(314,54)"  >
<rect style="fill:rgb(253, 210, 67);None" height="50" width="50"  />
<ellipse cy="12.5" cx="12.5" rx="5.0" ry="5.0" style="fill:rgb(255, 255, 255)"  />
<ellipse cy="25.0" cx="25.0" rx="5.0" ry="5.0" style="fill:rgb(255, 255, 255)"  />
<ellipse cy="37.5" cx="37.5" rx="5.0" ry="5.0" style="fill:rgb(255, 255, 255)"  />
</g>
<g transform="translate(314,106)"  >
<rect style="fill:rgb(253, 210, 67);None" height="50" width="50"  />
<ellipse cy="12.5" cx="12.5" rx="5.0" ry="5.0" style="fill:rgb(255, 255, 255)"  />
<ellipse cy="25.0" cx="25.0" rx="5.0" ry="5.0" style="fill:rgb(255, 255, 255)"  />
<ellipse cy="37.5" cx="37.5" rx="5.0" ry="5.0" style="fill:rgb(255, 255, 255)"  />
</g>
<g transform="translate(314,158)"  >
<rect style="fill:rgb(253, 210, 67);None" height="50" width="50"  />
<ellipse cy="12.5" cx="12.5" rx="5.0" ry="5.0" style="fill:rgb(255, 255, 255)"  />
<ellipse cy="25.0" cx="25.0" rx="5.0" ry="5.0" style="fill:rgb(255, 255, 255)"  />
<ellipse cy="37.5" cx="37.5" rx="5.0" ry="5.0" style="fill:rgb(255, 255, 255)"  />
</g>
<g transform="translate(314,210)"  >
<rect style="fill:rgb(37, 120, 233);None" height="50" width="50"  />
<ellipse cy="12.5" cx="12.5" rx="5.0" ry="5.0" style="fill:rgb(255, 255, 255)"  />
<ellipse cy="25.0" cx="12.5" rx="5.0" ry="5.0" style="fill:rgb(255, 255, 255)"  />
<ellipse cy="37.5" cx="12.5" rx="5.0" ry="5.0" style="fill:rgb(255, 255, 255)"  />
<ellipse cy="12.5" cx="37.5" rx="5.0" ry="5.0" style="fill:rgb(255, 255, 255)"  />
<ellipse cy="25.0" cx="37.5" rx="5.0" ry="5.0" style="fill:rgb(255, 255, 255)"  />
<ellipse cy="37.5" cx="37.5" rx="5.0" ry="5.0" style="fill:rgb(255, 255, 255)"  />
<ellipse cy="25.0" cx="25.0" rx="5.0" ry="5.0" style="fill:rgb(255, 255, 255)"  />
</g>
<g transform="translate(314,262)"  >
<rect style="fill:rgb(37, 120, 233);None" height="50" width="50"  />
<ellipse cy="12.5" cx="12.5" rx="5.0" ry="5.0" style="fill:rgb(255, 255, 255)"  />
<ellipse cy="25.0" cx="12.5" rx="5.0" ry="5.0" style="fill:rgb(255, 255, 255)"  />
<ellipse cy="37.5" cx="12.5" rx="5.0" ry="5.0" style="fill:rgb(255, 255, 255)"  />
<ellipse cy="12.5" cx="37.5" rx="5.0" ry="5.0" style="fill:rgb(255, 255, 255)"  />
<ellipse cy="25.0" cx="37.5" rx="5.0" ry="5.0" style="fill:rgb(255, 255, 255)"  />
<ellipse cy="37.5" cx="37.5" rx="5.0" ry="5.0" style="fill:rgb(255, 255, 255)"  />
<ellipse cy="25.0" cx="25.0" rx="5.0" ry="5.0" style="fill:rgb(255, 255, 255)"  />
</g>
<g transform="translate(314,314)"  >
<rect style="fill:rgb(37, 120, 233);None" height="50" width="50"  />
<ellipse cy="12.5" cx="12.5" rx="5.0" ry="5.0" style="fill:rgb(255, 255, 255)"  />
<ellipse cy="25.0" cx="12.5" rx="5.0" ry="5.0" style="fill:rgb(255, 255, 255)"  />
<ellipse cy="37.5" cx="12.5" rx="5.0" ry="5.0" style="fill:rgb(255, 255, 255)"  />
<ellipse cy="12.5" cx="37.5" rx="5.0" ry="5.0" style="fill:rgb(255, 255, 255)"  />
<ellipse cy="25.0" cx="37.5" rx="5.0" ry="5.0" style="fill:rgb(255, 255, 255)"  />
<ellipse cy="37.5" cx="37.5" rx="5.0" ry="5.0" style="fill:rgb(255, 255, 255)"  />
<ellipse cy="25.0" cx="25.0" rx="5.0" ry="5.0" style="fill:rgb(255, 255, 255)"  />
</g>
</svg>
</svg>
