<?xml version="1.0" encoding="ISO-8859-1" standalone="no"?><svg xmlns="http://www.w3.org/2000/svg" version="1.1" xmlns:xlink="http://www.w3.org/1999/xlink"  >
<svg xmlns="http://www.w3.org/2000/svg" version="1.1" xmlns:xlink="http://www.w3.org/1999/xlink"  >
<line y1="610.0" x2="200.0" style="stroke:rgb(0,0,0);stroke-width:2" x1="10.0" y2="410.0"  />
<text style="font-size:40;font-family:arial;fill:rgb(37,120,233);stroke:rgb(0,0,0);stroke-width:0.5" y="520.0" x="90.0"  >
3/6</text>
<g transform="translate(210.0,385.0)"  >
<rect style="fill:rgb(37, 120, 233);None" height="50" width="50"  />
<ellipse cy="12.5" cx="12.5" rx="5.0" ry="5.0" style="fill:rgb(255, 255, 255)"  />
<ellipse cy="37.5" cx="37.5" rx="5.0" ry="5.0" style="fill:rgb(255, 255, 255)"  />
</g>
<line y1="410.0" x2="425.0" style="stroke:rgb(0,0,0);stroke-width:2" x1="270.0" y2="250.0"  />
<text style="font-size:40;font-family:arial;fill:rgb(255,0,0);stroke:rgb(0,0,0);stroke-width:0.5" y="340.0" x="332.5"  >
1/6</text>
<g transform="translate(435.0,225.0)"  >
<rect style="fill:rgb(255, 0, 0);None" height="50" width="50"  />
<ellipse cy="12.5" cx="12.5" rx="5.0" ry="5.0" style="fill:rgb(255, 255, 255)"  />
<ellipse cy="25.0" cx="12.5" rx="5.0" ry="5.0" style="fill:rgb(255, 255, 255)"  />
<ellipse cy="37.5" cx="12.5" rx="5.0" ry="5.0" style="fill:rgb(255, 255, 255)"  />
<ellipse cy="12.5" cx="25.0" rx="5.0" ry="5.0" style="fill:rgb(255, 255, 255)"  />
<ellipse cy="25.0" cx="25.0" rx="5.0" ry="5.0" style="fill:rgb(255, 255, 255)"  />
<ellipse cy="37.5" cx="25.0" rx="5.0" ry="5.0" style="fill:rgb(255, 255, 255)"  />
<ellipse cy="12.5" cx="37.5" rx="5.0" ry="5.0" style="fill:rgb(255, 255, 255)"  />
<ellipse cy="25.0" cx="37.5" rx="5.0" ry="5.0" style="fill:rgb(255, 255, 255)"  />
<ellipse cy="37.5" cx="37.5" rx="5.0" ry="5.0" style="fill:rgb(255, 255, 255)"  />
</g>
<line y1="250.0" x2="650.0" style="stroke:rgb(0,0,0);stroke-width:2" x1="495.0" y2="143.0"  />
<text style="font-size:40;font-family:arial;fill:rgb(37,120,233);stroke:rgb(0,0,0);stroke-width:0.5" y="206.5" x="557.5"  >
3/6</text>
<g transform="translate(660.0,118.0)"  >
<rect style="fill:rgb(37, 120, 233);None" height="50" width="50"  />
<ellipse cy="12.5" cx="12.5" rx="5.0" ry="5.0" style="fill:rgb(255, 255, 255)"  />
<ellipse cy="37.5" cx="37.5" rx="5.0" ry="5.0" style="fill:rgb(255, 255, 255)"  />
</g>
<line y1="143.0" x2="875.0" style="stroke:rgb(0,0,0);stroke-width:2" x1="720.0" y2="80.0"  />
<text style="font-size:40;font-family:arial;fill:rgb(255,0,0);stroke:rgb(0,0,0);stroke-width:0.5" y="121.5" x="782.5"  >
1/6</text>
<g transform="translate(885.0,55.0)"  >
<rect style="fill:rgb(255, 0, 0);None" height="50" width="50"  />
<ellipse cy="12.5" cx="12.5" rx="5.0" ry="5.0" style="fill:rgb(255, 255, 255)"  />
<ellipse cy="25.0" cx="12.5" rx="5.0" ry="5.0" style="fill:rgb(255, 255, 255)"  />
<ellipse cy="37.5" cx="12.5" rx="5.0" ry="5.0" style="fill:rgb(255, 255, 255)"  />
<ellipse cy="12.5" cx="25.0" rx="5.0" ry="5.0" style="fill:rgb(255, 255, 255)"  />
<ellipse cy="25.0" cx="25.0" rx="5.0" ry="5.0" style="fill:rgb(255, 255, 255)"  />
<ellipse cy="37.5" cx="25.0" rx="5.0" ry="5.0" style="fill:rgb(255, 255, 255)"  />
<ellipse cy="12.5" cx="37.5" rx="5.0" ry="5.0" style="fill:rgb(255, 255, 255)"  />
<ellipse cy="25.0" cx="37.5" rx="5.0" ry="5.0" style="fill:rgb(255, 255, 255)"  />
<ellipse cy="37.5" cx="37.5" rx="5.0" ry="5.0" style="fill:rgb(255, 255, 255)"  />
</g>
<text style="font-size:50;font-family:arial;" y="98.0" x="945.0"  >
=</text>
<text style="fill:rgb(255,0,0);font-size:40;font-family:arial;" y="93.0" x="985.0"  >
0.69 %</text>
<line y1="143.0" x2="875.0" style="stroke:rgb(0,0,0);stroke-width:2" x1="720.0" y2="151.0"  />
<text style="font-size:40;font-family:arial;fill:rgb(255,0,0);stroke:rgb(0,0,0);stroke-width:0.5" y="157.0" x="782.5"  >
5/6</text>
<g transform="translate(885.0,126.0)"  >
<rect style="fill:rgb(255, 0, 0);None" height="50" width="50"  />
<ellipse cy="12.5" cx="12.5" rx="5.0" ry="5.0" style="fill:rgb(255, 255, 255)"  />
<ellipse cy="37.5" cx="12.5" rx="5.0" ry="5.0" style="fill:rgb(255, 255, 255)"  />
<ellipse cy="12.5" cx="37.5" rx="5.0" ry="5.0" style="fill:rgb(255, 255, 255)"  />
<ellipse cy="37.5" cx="37.5" rx="5.0" ry="5.0" style="fill:rgb(255, 255, 255)"  />
</g>
<text style="font-size:50;font-family:arial;" y="169.0" x="945.0"  >
=</text>
<text style="fill:rgb(255,0,0);font-size:40;font-family:arial;" y="164.0" x="985.0"  >
3.47 %</text>
<line y1="250.0" x2="650.0" style="stroke:rgb(0,0,0);stroke-width:2" x1="495.0" y2="276.0"  />
<text style="font-size:40;font-family:arial;fill:rgb(37,120,233);stroke:rgb(0,0,0);stroke-width:0.5" y="273.0" x="557.5"  >
3/6</text>
<g transform="translate(660.0,251.0)"  >
<rect style="fill:rgb(37, 120, 233);None" height="50" width="50"  />
<ellipse cy="12.5" cx="12.5" rx="5.0" ry="5.0" style="fill:rgb(255, 255, 255)"  />
<ellipse cy="25.0" cx="12.5" rx="5.0" ry="5.0" style="fill:rgb(255, 255, 255)"  />
<ellipse cy="37.5" cx="12.5" rx="5.0" ry="5.0" style="fill:rgb(255, 255, 255)"  />
<ellipse cy="12.5" cx="37.5" rx="5.0" ry="5.0" style="fill:rgb(255, 255, 255)"  />
<ellipse cy="25.0" cx="37.5" rx="5.0" ry="5.0" style="fill:rgb(255, 255, 255)"  />
<ellipse cy="37.5" cx="37.5" rx="5.0" ry="5.0" style="fill:rgb(255, 255, 255)"  />
<ellipse cy="25.0" cx="25.0" rx="5.0" ry="5.0" style="fill:rgb(255, 255, 255)"  />
</g>
<line y1="276.0" x2="875.0" style="stroke:rgb(0,0,0);stroke-width:2" x1="720.0" y2="221.0"  />
<text style="font-size:40;font-family:arial;fill:rgb(255,0,0);stroke:rgb(0,0,0);stroke-width:0.5" y="258.5" x="782.5"  >
1/6</text>
<g transform="translate(885.0,196.0)"  >
<rect style="fill:rgb(255, 0, 0);None" height="50" width="50"  />
<ellipse cy="12.5" cx="12.5" rx="5.0" ry="5.0" style="fill:rgb(255, 255, 255)"  />
<ellipse cy="25.0" cx="12.5" rx="5.0" ry="5.0" style="fill:rgb(255, 255, 255)"  />
<ellipse cy="37.5" cx="12.5" rx="5.0" ry="5.0" style="fill:rgb(255, 255, 255)"  />
<ellipse cy="12.5" cx="25.0" rx="5.0" ry="5.0" style="fill:rgb(255, 255, 255)"  />
<ellipse cy="25.0" cx="25.0" rx="5.0" ry="5.0" style="fill:rgb(255, 255, 255)"  />
<ellipse cy="37.5" cx="25.0" rx="5.0" ry="5.0" style="fill:rgb(255, 255, 255)"  />
<ellipse cy="12.5" cx="37.5" rx="5.0" ry="5.0" style="fill:rgb(255, 255, 255)"  />
<ellipse cy="25.0" cx="37.5" rx="5.0" ry="5.0" style="fill:rgb(255, 255, 255)"  />
<ellipse cy="37.5" cx="37.5" rx="5.0" ry="5.0" style="fill:rgb(255, 255, 255)"  />
</g>
<text style="font-size:50;font-family:arial;" y="239.0" x="945.0"  >
=</text>
<text style="fill:rgb(255,0,0);font-size:40;font-family:arial;" y="234.0" x="985.0"  >
0.69 %</text>
<line y1="276.0" x2="875.0" style="stroke:rgb(0,0,0);stroke-width:2" x1="720.0" y2="292.0"  />
<text style="font-size:40;font-family:arial;fill:rgb(255,0,0);stroke:rgb(0,0,0);stroke-width:0.5" y="294.0" x="782.5"  >
5/6</text>
<g transform="translate(885.0,267.0)"  >
<rect style="fill:rgb(255, 0, 0);None" height="50" width="50"  />
<ellipse cy="12.5" cx="12.5" rx="5.0" ry="5.0" style="fill:rgb(255, 255, 255)"  />
<ellipse cy="37.5" cx="12.5" rx="5.0" ry="5.0" style="fill:rgb(255, 255, 255)"  />
<ellipse cy="12.5" cx="37.5" rx="5.0" ry="5.0" style="fill:rgb(255, 255, 255)"  />
<ellipse cy="37.5" cx="37.5" rx="5.0" ry="5.0" style="fill:rgb(255, 255, 255)"  />
</g>
<text style="font-size:50;font-family:arial;" y="310.0" x="945.0"  >
=</text>
<text style="fill:rgb(255,0,0);font-size:40;font-family:arial;" y="305.0" x="985.0"  >
3.47 %</text>
<line y1="410.0" x2="425.0" style="stroke:rgb(0,0,0);stroke-width:2" x1="270.0" y2="490.0"  />
<text style="font-size:40;font-family:arial;fill:rgb(255,0,0);stroke:rgb(0,0,0);stroke-width:0.5" y="460.0" x="332.5"  >
5/6</text>
<g transform="translate(435.0,465.0)"  >
<rect style="fill:rgb(255, 0, 0);None" height="50" width="50"  />
<ellipse cy="12.5" cx="12.5" rx="5.0" ry="5.0" style="fill:rgb(255, 255, 255)"  />
<ellipse cy="37.5" cx="12.5" rx="5.0" ry="5.0" style="fill:rgb(255, 255, 255)"  />
<ellipse cy="12.5" cx="37.5" rx="5.0" ry="5.0" style="fill:rgb(255, 255, 255)"  />
<ellipse cy="37.5" cx="37.5" rx="5.0" ry="5.0" style="fill:rgb(255, 255, 255)"  />
</g>
<line y1="490.0" x2="650.0" style="stroke:rgb(0,0,0);stroke-width:2" x1="495.0" y2="410.0"  />
<text style="font-size:40;font-family:arial;fill:rgb(37,120,233);stroke:rgb(0,0,0);stroke-width:0.5" y="460.0" x="557.5"  >
3/6</text>
<g transform="translate(660.0,385.0)"  >
<rect style="fill:rgb(37, 120, 233);None" height="50" width="50"  />
<ellipse cy="12.5" cx="12.5" rx="5.0" ry="5.0" style="fill:rgb(255, 255, 255)"  />
<ellipse cy="37.5" cx="37.5" rx="5.0" ry="5.0" style="fill:rgb(255, 255, 255)"  />
</g>
<line y1="410.0" x2="875.0" style="stroke:rgb(0,0,0);stroke-width:2" x1="720.0" y2="362.0"  />
<text style="font-size:40;font-family:arial;fill:rgb(255,0,0);stroke:rgb(0,0,0);stroke-width:0.5" y="396.0" x="782.5"  >
1/6</text>
<g transform="translate(885.0,337.0)"  >
<rect style="fill:rgb(255, 0, 0);None" height="50" width="50"  />
<ellipse cy="12.5" cx="12.5" rx="5.0" ry="5.0" style="fill:rgb(255, 255, 255)"  />
<ellipse cy="25.0" cx="12.5" rx="5.0" ry="5.0" style="fill:rgb(255, 255, 255)"  />
<ellipse cy="37.5" cx="12.5" rx="5.0" ry="5.0" style="fill:rgb(255, 255, 255)"  />
<ellipse cy="12.5" cx="25.0" rx="5.0" ry="5.0" style="fill:rgb(255, 255, 255)"  />
<ellipse cy="25.0" cx="25.0" rx="5.0" ry="5.0" style="fill:rgb(255, 255, 255)"  />
<ellipse cy="37.5" cx="25.0" rx="5.0" ry="5.0" style="fill:rgb(255, 255, 255)"  />
<ellipse cy="12.5" cx="37.5" rx="5.0" ry="5.0" style="fill:rgb(255, 255, 255)"  />
<ellipse cy="25.0" cx="37.5" rx="5.0" ry="5.0" style="fill:rgb(255, 255, 255)"  />
<ellipse cy="37.5" cx="37.5" rx="5.0" ry="5.0" style="fill:rgb(255, 255, 255)"  />
</g>
<text style="font-size:50;font-family:arial;" y="380.0" x="945.0"  >
=</text>
<text style="fill:rgb(255,0,0);font-size:40;font-family:arial;" y="375.0" x="985.0"  >
3.47 %</text>
<line y1="410.0" x2="875.0" style="stroke:rgb(0,0,0);stroke-width:2" x1="720.0" y2="433.0"  />
<text style="font-size:40;font-family:arial;fill:rgb(255,0,0);stroke:rgb(0,0,0);stroke-width:0.5" y="431.5" x="782.5"  >
5/6</text>
<g transform="translate(885.0,408.0)"  >
<rect style="fill:rgb(255, 0, 0);None" height="50" width="50"  />
<ellipse cy="12.5" cx="12.5" rx="5.0" ry="5.0" style="fill:rgb(255, 255, 255)"  />
<ellipse cy="37.5" cx="12.5" rx="5.0" ry="5.0" style="fill:rgb(255, 255, 255)"  />
<ellipse cy="12.5" cx="37.5" rx="5.0" ry="5.0" style="fill:rgb(255, 255, 255)"  />
<ellipse cy="37.5" cx="37.5" rx="5.0" ry="5.0" style="fill:rgb(255, 255, 255)"  />
</g>
<text style="font-size:50;font-family:arial;" y="451.0" x="945.0"  >
=</text>
<text style="fill:rgb(255,0,0);font-size:40;font-family:arial;" y="446.0" x="985.0"  >
17.36 %</text>
<line y1="490.0" x2="650.0" style="stroke:rgb(0,0,0);stroke-width:2" x1="495.0" y2="543.0"  />
<text style="font-size:40;font-family:arial;fill:rgb(37,120,233);stroke:rgb(0,0,0);stroke-width:0.5" y="526.5" x="557.5"  >
3/6</text>
<g transform="translate(660.0,518.0)"  >
<rect style="fill:rgb(37, 120, 233);None" height="50" width="50"  />
<ellipse cy="12.5" cx="12.5" rx="5.0" ry="5.0" style="fill:rgb(255, 255, 255)"  />
<ellipse cy="25.0" cx="12.5" rx="5.0" ry="5.0" style="fill:rgb(255, 255, 255)"  />
<ellipse cy="37.5" cx="12.5" rx="5.0" ry="5.0" style="fill:rgb(255, 255, 255)"  />
<ellipse cy="12.5" cx="37.5" rx="5.0" ry="5.0" style="fill:rgb(255, 255, 255)"  />
<ellipse cy="25.0" cx="37.5" rx="5.0" ry="5.0" style="fill:rgb(255, 255, 255)"  />
<ellipse cy="37.5" cx="37.5" rx="5.0" ry="5.0" style="fill:rgb(255, 255, 255)"  />
<ellipse cy="25.0" cx="25.0" rx="5.0" ry="5.0" style="fill:rgb(255, 255, 255)"  />
</g>
<line y1="543.0" x2="875.0" style="stroke:rgb(0,0,0);stroke-width:2" x1="720.0" y2="504.0"  />
<text style="font-size:40;font-family:arial;fill:rgb(255,0,0);stroke:rgb(0,0,0);stroke-width:0.5" y="533.5" x="782.5"  >
1/6</text>
<g transform="translate(885.0,479.0)"  >
<rect style="fill:rgb(255, 0, 0);None" height="50" width="50"  />
<ellipse cy="12.5" cx="12.5" rx="5.0" ry="5.0" style="fill:rgb(255, 255, 255)"  />
<ellipse cy="25.0" cx="12.5" rx="5.0" ry="5.0" style="fill:rgb(255, 255, 255)"  />
<ellipse cy="37.5" cx="12.5" rx="5.0" ry="5.0" style="fill:rgb(255, 255, 255)"  />
<ellipse cy="12.5" cx="25.0" rx="5.0" ry="5.0" style="fill:rgb(255, 255, 255)"  />
<ellipse cy="25.0" cx="25.0" rx="5.0" ry="5.0" style="fill:rgb(255, 255, 255)"  />
<ellipse cy="37.5" cx="25.0" rx="5.0" ry="5.0" style="fill:rgb(255, 255, 255)"  />
<ellipse cy="12.5" cx="37.5" rx="5.0" ry="5.0" style="fill:rgb(255, 255, 255)"  />
<ellipse cy="25.0" cx="37.5" rx="5.0" ry="5.0" style="fill:rgb(255, 255, 255)"  />
<ellipse cy="37.5" cx="37.5" rx="5.0" ry="5.0" style="fill:rgb(255, 255, 255)"  />
</g>
<text style="font-size:50;font-family:arial;" y="522.0" x="945.0"  >
=</text>
<text style="fill:rgb(255,0,0);font-size:40;font-family:arial;" y="517.0" x="985.0"  >
3.47 %</text>
<line y1="543.0" x2="875.0" style="stroke:rgb(0,0,0);stroke-width:2" x1="720.0" y2="574.0"  />
<text style="font-size:40;font-family:arial;fill:rgb(255,0,0);stroke:rgb(0,0,0);stroke-width:0.5" y="568.5" x="782.5"  >
5/6</text>
<g transform="translate(885.0,549.0)"  >
<rect style="fill:rgb(255, 0, 0);None" height="50" width="50"  />
<ellipse cy="12.5" cx="12.5" rx="5.0" ry="5.0" style="fill:rgb(255, 255, 255)"  />
<ellipse cy="37.5" cx="12.5" rx="5.0" ry="5.0" style="fill:rgb(255, 255, 255)"  />
<ellipse cy="12.5" cx="37.5" rx="5.0" ry="5.0" style="fill:rgb(255, 255, 255)"  />
<ellipse cy="37.5" cx="37.5" rx="5.0" ry="5.0" style="fill:rgb(255, 255, 255)"  />
</g>
<text style="font-size:50;font-family:arial;" y="592.0" x="945.0"  >
=</text>
<text style="fill:rgb(37,120,233);font-size:40;font-family:arial;" y="587.0" x="985.0"  >
17.36 %</text>
<line y1="610.0" x2="200.0" style="stroke:rgb(0,0,0);stroke-width:2" x1="10.0" y2="810.0"  />
<text style="font-size:40;font-family:arial;fill:rgb(37,120,233);stroke:rgb(0,0,0);stroke-width:0.5" y="720.0" x="90.0"  >
3/6</text>
<g transform="translate(210.0,785.0)"  >
<rect style="fill:rgb(37, 120, 233);None" height="50" width="50"  />
<ellipse cy="12.5" cx="12.5" rx="5.0" ry="5.0" style="fill:rgb(255, 255, 255)"  />
<ellipse cy="25.0" cx="12.5" rx="5.0" ry="5.0" style="fill:rgb(255, 255, 255)"  />
<ellipse cy="37.5" cx="12.5" rx="5.0" ry="5.0" style="fill:rgb(255, 255, 255)"  />
<ellipse cy="12.5" cx="37.5" rx="5.0" ry="5.0" style="fill:rgb(255, 255, 255)"  />
<ellipse cy="25.0" cx="37.5" rx="5.0" ry="5.0" style="fill:rgb(255, 255, 255)"  />
<ellipse cy="37.5" cx="37.5" rx="5.0" ry="5.0" style="fill:rgb(255, 255, 255)"  />
<ellipse cy="25.0" cx="25.0" rx="5.0" ry="5.0" style="fill:rgb(255, 255, 255)"  />
</g>
<line y1="810.0" x2="425.0" style="stroke:rgb(0,0,0);stroke-width:2" x1="270.0" y2="730.0"  />
<text style="font-size:40;font-family:arial;fill:rgb(255,0,0);stroke:rgb(0,0,0);stroke-width:0.5" y="780.0" x="332.5"  >
1/6</text>
<g transform="translate(435.0,705.0)"  >
<rect style="fill:rgb(255, 0, 0);None" height="50" width="50"  />
<ellipse cy="12.5" cx="12.5" rx="5.0" ry="5.0" style="fill:rgb(255, 255, 255)"  />
<ellipse cy="25.0" cx="12.5" rx="5.0" ry="5.0" style="fill:rgb(255, 255, 255)"  />
<ellipse cy="37.5" cx="12.5" rx="5.0" ry="5.0" style="fill:rgb(255, 255, 255)"  />
<ellipse cy="12.5" cx="25.0" rx="5.0" ry="5.0" style="fill:rgb(255, 255, 255)"  />
<ellipse cy="25.0" cx="25.0" rx="5.0" ry="5.0" style="fill:rgb(255, 255, 255)"  />
<ellipse cy="37.5" cx="25.0" rx="5.0" ry="5.0" style="fill:rgb(255, 255, 255)"  />
<ellipse cy="12.5" cx="37.5" rx="5.0" ry="5.0" style="fill:rgb(255, 255, 255)"  />
<ellipse cy="25.0" cx="37.5" rx="5.0" ry="5.0" style="fill:rgb(255, 255, 255)"  />
<ellipse cy="37.5" cx="37.5" rx="5.0" ry="5.0" style="fill:rgb(255, 255, 255)"  />
</g>
<line y1="730.0" x2="650.0" style="stroke:rgb(0,0,0);stroke-width:2" x1="495.0" y2="676.0"  />
<text style="font-size:40;font-family:arial;fill:rgb(37,120,233);stroke:rgb(0,0,0);stroke-width:0.5" y="713.0" x="557.5"  >
3/6</text>
<g transform="translate(660.0,651.0)"  >
<rect style="fill:rgb(37, 120, 233);None" height="50" width="50"  />
<ellipse cy="12.5" cx="12.5" rx="5.0" ry="5.0" style="fill:rgb(255, 255, 255)"  />
<ellipse cy="37.5" cx="37.5" rx="5.0" ry="5.0" style="fill:rgb(255, 255, 255)"  />
</g>
<line y1="676.0" x2="875.0" style="stroke:rgb(0,0,0);stroke-width:2" x1="720.0" y2="645.0"  />
<text style="font-size:40;font-family:arial;fill:rgb(255,0,0);stroke:rgb(0,0,0);stroke-width:0.5" y="670.5" x="782.5"  >
1/6</text>
<g transform="translate(885.0,620.0)"  >
<rect style="fill:rgb(255, 0, 0);None" height="50" width="50"  />
<ellipse cy="12.5" cx="12.5" rx="5.0" ry="5.0" style="fill:rgb(255, 255, 255)"  />
<ellipse cy="25.0" cx="12.5" rx="5.0" ry="5.0" style="fill:rgb(255, 255, 255)"  />
<ellipse cy="37.5" cx="12.5" rx="5.0" ry="5.0" style="fill:rgb(255, 255, 255)"  />
<ellipse cy="12.5" cx="25.0" rx="5.0" ry="5.0" style="fill:rgb(255, 255, 255)"  />
<ellipse cy="25.0" cx="25.0" rx="5.0" ry="5.0" style="fill:rgb(255, 255, 255)"  />
<ellipse cy="37.5" cx="25.0" rx="5.0" ry="5.0" style="fill:rgb(255, 255, 255)"  />
<ellipse cy="12.5" cx="37.5" rx="5.0" ry="5.0" style="fill:rgb(255, 255, 255)"  />
<ellipse cy="25.0" cx="37.5" rx="5.0" ry="5.0" style="fill:rgb(255, 255, 255)"  />
<ellipse cy="37.5" cx="37.5" rx="5.0" ry="5.0" style="fill:rgb(255, 255, 255)"  />
</g>
<text style="font-size:50;font-family:arial;" y="663.0" x="945.0"  >
=</text>
<text style="fill:rgb(255,0,0);font-size:40;font-family:arial;" y="658.0" x="985.0"  >
0.69 %</text>
<line y1="676.0" x2="875.0" style="stroke:rgb(0,0,0);stroke-width:2" x1="720.0" y2="715.0"  />
<text style="font-size:40;font-family:arial;fill:rgb(255,0,0);stroke:rgb(0,0,0);stroke-width:0.5" y="705.5" x="782.5"  >
5/6</text>
<g transform="translate(885.0,690.0)"  >
<rect style="fill:rgb(255, 0, 0);None" height="50" width="50"  />
<ellipse cy="12.5" cx="12.5" rx="5.0" ry="5.0" style="fill:rgb(255, 255, 255)"  />
<ellipse cy="37.5" cx="12.5" rx="5.0" ry="5.0" style="fill:rgb(255, 255, 255)"  />
<ellipse cy="12.5" cx="37.5" rx="5.0" ry="5.0" style="fill:rgb(255, 255, 255)"  />
<ellipse cy="37.5" cx="37.5" rx="5.0" ry="5.0" style="fill:rgb(255, 255, 255)"  />
</g>
<text style="font-size:50;font-family:arial;" y="733.0" x="945.0"  >
=</text>
<text style="fill:rgb(255,0,0);font-size:40;font-family:arial;" y="728.0" x="985.0"  >
3.47 %</text>
<line y1="730.0" x2="650.0" style="stroke:rgb(0,0,0);stroke-width:2" x1="495.0" y2="810.0"  />
<text style="font-size:40;font-family:arial;fill:rgb(37,120,233);stroke:rgb(0,0,0);stroke-width:0.5" y="780.0" x="557.5"  >
3/6</text>
<g transform="translate(660.0,785.0)"  >
<rect style="fill:rgb(37, 120, 233);None" height="50" width="50"  />
<ellipse cy="12.5" cx="12.5" rx="5.0" ry="5.0" style="fill:rgb(255, 255, 255)"  />
<ellipse cy="25.0" cx="12.5" rx="5.0" ry="5.0" style="fill:rgb(255, 255, 255)"  />
<ellipse cy="37.5" cx="12.5" rx="5.0" ry="5.0" style="fill:rgb(255, 255, 255)"  />
<ellipse cy="12.5" cx="37.5" rx="5.0" ry="5.0" style="fill:rgb(255, 255, 255)"  />
<ellipse cy="25.0" cx="37.5" rx="5.0" ry="5.0" style="fill:rgb(255, 255, 255)"  />
<ellipse cy="37.5" cx="37.5" rx="5.0" ry="5.0" style="fill:rgb(255, 255, 255)"  />
<ellipse cy="25.0" cx="25.0" rx="5.0" ry="5.0" style="fill:rgb(255, 255, 255)"  />
</g>
<line y1="810.0" x2="875.0" style="stroke:rgb(0,0,0);stroke-width:2" x1="720.0" y2="786.0"  />
<text style="font-size:40;font-family:arial;fill:rgb(255,0,0);stroke:rgb(0,0,0);stroke-width:0.5" y="808.0" x="782.5"  >
1/6</text>
<g transform="translate(885.0,761.0)"  >
<rect style="fill:rgb(255, 0, 0);None" height="50" width="50"  />
<ellipse cy="12.5" cx="12.5" rx="5.0" ry="5.0" style="fill:rgb(255, 255, 255)"  />
<ellipse cy="25.0" cx="12.5" rx="5.0" ry="5.0" style="fill:rgb(255, 255, 255)"  />
<ellipse cy="37.5" cx="12.5" rx="5.0" ry="5.0" style="fill:rgb(255, 255, 255)"  />
<ellipse cy="12.5" cx="25.0" rx="5.0" ry="5.0" style="fill:rgb(255, 255, 255)"  />
<ellipse cy="25.0" cx="25.0" rx="5.0" ry="5.0" style="fill:rgb(255, 255, 255)"  />
<ellipse cy="37.5" cx="25.0" rx="5.0" ry="5.0" style="fill:rgb(255, 255, 255)"  />
<ellipse cy="12.5" cx="37.5" rx="5.0" ry="5.0" style="fill:rgb(255, 255, 255)"  />
<ellipse cy="25.0" cx="37.5" rx="5.0" ry="5.0" style="fill:rgb(255, 255, 255)"  />
<ellipse cy="37.5" cx="37.5" rx="5.0" ry="5.0" style="fill:rgb(255, 255, 255)"  />
</g>
<text style="font-size:50;font-family:arial;" y="804.0" x="945.0"  >
=</text>
<text style="fill:rgb(255,0,0);font-size:40;font-family:arial;" y="799.0" x="985.0"  >
0.69 %</text>
<line y1="810.0" x2="875.0" style="stroke:rgb(0,0,0);stroke-width:2" x1="720.0" y2="857.0"  />
<text style="font-size:40;font-family:arial;fill:rgb(255,0,0);stroke:rgb(0,0,0);stroke-width:0.5" y="843.5" x="782.5"  >
5/6</text>
<g transform="translate(885.0,832.0)"  >
<rect style="fill:rgb(255, 0, 0);None" height="50" width="50"  />
<ellipse cy="12.5" cx="12.5" rx="5.0" ry="5.0" style="fill:rgb(255, 255, 255)"  />
<ellipse cy="37.5" cx="12.5" rx="5.0" ry="5.0" style="fill:rgb(255, 255, 255)"  />
<ellipse cy="12.5" cx="37.5" rx="5.0" ry="5.0" style="fill:rgb(255, 255, 255)"  />
<ellipse cy="37.5" cx="37.5" rx="5.0" ry="5.0" style="fill:rgb(255, 255, 255)"  />
</g>
<text style="font-size:50;font-family:arial;" y="875.0" x="945.0"  >
=</text>
<text style="fill:rgb(37,120,233);font-size:40;font-family:arial;" y="870.0" x="985.0"  >
3.47 %</text>
<line y1="810.0" x2="425.0" style="stroke:rgb(0,0,0);stroke-width:2" x1="270.0" y2="970.0"  />
<text style="font-size:40;font-family:arial;fill:rgb(255,0,0);stroke:rgb(0,0,0);stroke-width:0.5" y="900.0" x="332.5"  >
5/6</text>
<g transform="translate(435.0,945.0)"  >
<rect style="fill:rgb(255, 0, 0);None" height="50" width="50"  />
<ellipse cy="12.5" cx="12.5" rx="5.0" ry="5.0" style="fill:rgb(255, 255, 255)"  />
<ellipse cy="37.5" cx="12.5" rx="5.0" ry="5.0" style="fill:rgb(255, 255, 255)"  />
<ellipse cy="12.5" cx="37.5" rx="5.0" ry="5.0" style="fill:rgb(255, 255, 255)"  />
<ellipse cy="37.5" cx="37.5" rx="5.0" ry="5.0" style="fill:rgb(255, 255, 255)"  />
</g>
<line y1="970.0" x2="650.0" style="stroke:rgb(0,0,0);stroke-width:2" x1="495.0" y2="943.0"  />
<text style="font-size:40;font-family:arial;fill:rgb(37,120,233);stroke:rgb(0,0,0);stroke-width:0.5" y="966.5" x="557.5"  >
3/6</text>
<g transform="translate(660.0,918.0)"  >
<rect style="fill:rgb(37, 120, 233);None" height="50" width="50"  />
<ellipse cy="12.5" cx="12.5" rx="5.0" ry="5.0" style="fill:rgb(255, 255, 255)"  />
<ellipse cy="37.5" cx="37.5" rx="5.0" ry="5.0" style="fill:rgb(255, 255, 255)"  />
</g>
<line y1="943.0" x2="875.0" style="stroke:rgb(0,0,0);stroke-width:2" x1="720.0" y2="927.0"  />
<text style="font-size:40;font-family:arial;fill:rgb(255,0,0);stroke:rgb(0,0,0);stroke-width:0.5" y="945.0" x="782.5"  >
1/6</text>
<g transform="translate(885.0,902.0)"  >
<rect style="fill:rgb(255, 0, 0);None" height="50" width="50"  />
<ellipse cy="12.5" cx="12.5" rx="5.0" ry="5.0" style="fill:rgb(255, 255, 255)"  />
<ellipse cy="25.0" cx="12.5" rx="5.0" ry="5.0" style="fill:rgb(255, 255, 255)"  />
<ellipse cy="37.5" cx="12.5" rx="5.0" ry="5.0" style="fill:rgb(255, 255, 255)"  />
<ellipse cy="12.5" cx="25.0" rx="5.0" ry="5.0" style="fill:rgb(255, 255, 255)"  />
<ellipse cy="25.0" cx="25.0" rx="5.0" ry="5.0" style="fill:rgb(255, 255, 255)"  />
<ellipse cy="37.5" cx="25.0" rx="5.0" ry="5.0" style="fill:rgb(255, 255, 255)"  />
<ellipse cy="12.5" cx="37.5" rx="5.0" ry="5.0" style="fill:rgb(255, 255, 255)"  />
<ellipse cy="25.0" cx="37.5" rx="5.0" ry="5.0" style="fill:rgb(255, 255, 255)"  />
<ellipse cy="37.5" cx="37.5" rx="5.0" ry="5.0" style="fill:rgb(255, 255, 255)"  />
</g>
<text style="font-size:50;font-family:arial;" y="945.0" x="945.0"  >
=</text>
<text style="fill:rgb(255,0,0);font-size:40;font-family:arial;" y="940.0" x="985.0"  >
3.47 %</text>
<line y1="943.0" x2="875.0" style="stroke:rgb(0,0,0);stroke-width:2" x1="720.0" y2="998.0"  />
<text style="font-size:40;font-family:arial;fill:rgb(255,0,0);stroke:rgb(0,0,0);stroke-width:0.5" y="980.5" x="782.5"  >
5/6</text>
<g transform="translate(885.0,973.0)"  >
<rect style="fill:rgb(255, 0, 0);None" height="50" width="50"  />
<ellipse cy="12.5" cx="12.5" rx="5.0" ry="5.0" style="fill:rgb(255, 255, 255)"  />
<ellipse cy="37.5" cx="12.5" rx="5.0" ry="5.0" style="fill:rgb(255, 255, 255)"  />
<ellipse cy="12.5" cx="37.5" rx="5.0" ry="5.0" style="fill:rgb(255, 255, 255)"  />
<ellipse cy="37.5" cx="37.5" rx="5.0" ry="5.0" style="fill:rgb(255, 255, 255)"  />
</g>
<text style="font-size:50;font-family:arial;" y="1016.0" x="945.0"  >
=</text>
<text style="fill:rgb(37,120,233);font-size:40;font-family:arial;" y="1011.0" x="985.0"  >
17.36 %</text>
<line y1="970.0" x2="650.0" style="stroke:rgb(0,0,0);stroke-width:2" x1="495.0" y2="1076.0"  />
<text style="font-size:40;font-family:arial;fill:rgb(37,120,233);stroke:rgb(0,0,0);stroke-width:0.5" y="1033.0" x="557.5"  >
3/6</text>
<g transform="translate(660.0,1051.0)"  >
<rect style="fill:rgb(37, 120, 233);None" height="50" width="50"  />
<ellipse cy="12.5" cx="12.5" rx="5.0" ry="5.0" style="fill:rgb(255, 255, 255)"  />
<ellipse cy="25.0" cx="12.5" rx="5.0" ry="5.0" style="fill:rgb(255, 255, 255)"  />
<ellipse cy="37.5" cx="12.5" rx="5.0" ry="5.0" style="fill:rgb(255, 255, 255)"  />
<ellipse cy="12.5" cx="37.5" rx="5.0" ry="5.0" style="fill:rgb(255, 255, 255)"  />
<ellipse cy="25.0" cx="37.5" rx="5.0" ry="5.0" style="fill:rgb(255, 255, 255)"  />
<ellipse cy="37.5" cx="37.5" rx="5.0" ry="5.0" style="fill:rgb(255, 255, 255)"  />
<ellipse cy="25.0" cx="25.0" rx="5.0" ry="5.0" style="fill:rgb(255, 255, 255)"  />
</g>
<line y1="1076.0" x2="875.0" style="stroke:rgb(0,0,0);stroke-width:2" x1="720.0" y2="1068.0"  />
<text style="font-size:40;font-family:arial;fill:rgb(255,0,0);stroke:rgb(0,0,0);stroke-width:0.5" y="1082.0" x="782.5"  >
1/6</text>
<g transform="translate(885.0,1043.0)"  >
<rect style="fill:rgb(255, 0, 0);None" height="50" width="50"  />
<ellipse cy="12.5" cx="12.5" rx="5.0" ry="5.0" style="fill:rgb(255, 255, 255)"  />
<ellipse cy="25.0" cx="12.5" rx="5.0" ry="5.0" style="fill:rgb(255, 255, 255)"  />
<ellipse cy="37.5" cx="12.5" rx="5.0" ry="5.0" style="fill:rgb(255, 255, 255)"  />
<ellipse cy="12.5" cx="25.0" rx="5.0" ry="5.0" style="fill:rgb(255, 255, 255)"  />
<ellipse cy="25.0" cx="25.0" rx="5.0" ry="5.0" style="fill:rgb(255, 255, 255)"  />
<ellipse cy="37.5" cx="25.0" rx="5.0" ry="5.0" style="fill:rgb(255, 255, 255)"  />
<ellipse cy="12.5" cx="37.5" rx="5.0" ry="5.0" style="fill:rgb(255, 255, 255)"  />
<ellipse cy="25.0" cx="37.5" rx="5.0" ry="5.0" style="fill:rgb(255, 255, 255)"  />
<ellipse cy="37.5" cx="37.5" rx="5.0" ry="5.0" style="fill:rgb(255, 255, 255)"  />
</g>
<text style="font-size:50;font-family:arial;" y="1086.0" x="945.0"  >
=</text>
<text style="fill:rgb(37,120,233);font-size:40;font-family:arial;" y="1081.0" x="985.0"  >
3.47 %</text>
<line y1="1076.0" x2="875.0" style="stroke:rgb(0,0,0);stroke-width:2" x1="720.0" y2="1139.0"  />
<text style="font-size:40;font-family:arial;fill:rgb(255,0,0);stroke:rgb(0,0,0);stroke-width:0.5" y="1117.5" x="782.5"  >
5/6</text>
<g transform="translate(885.0,1114.0)"  >
<rect style="fill:rgb(255, 0, 0);None" height="50" width="50"  />
<ellipse cy="12.5" cx="12.5" rx="5.0" ry="5.0" style="fill:rgb(255, 255, 255)"  />
<ellipse cy="37.5" cx="12.5" rx="5.0" ry="5.0" style="fill:rgb(255, 255, 255)"  />
<ellipse cy="12.5" cx="37.5" rx="5.0" ry="5.0" style="fill:rgb(255, 255, 255)"  />
<ellipse cy="37.5" cx="37.5" rx="5.0" ry="5.0" style="fill:rgb(255, 255, 255)"  />
</g>
<text style="font-size:50;font-family:arial;" y="1157.0" x="945.0"  >
=</text>
<text style="fill:rgb(37,120,233);font-size:40;font-family:arial;" y="1152.0" x="985.0"  >
17.36 %</text>
<text style="fill:rgb(37,120,233);font-size:40;font-family:arial;text-decoration:underline" y="405.0" x="1195.0"  >
59.03 %</text>
<text style="fill:rgb(255,0,0);font-size:40;font-family:arial" y="805.0" x="1195.0"  >
40.97 %</text>
</svg>
</svg>
