<?xml version="1.0" encoding="utf-8" standalone="no"?>
<svg xmlns:dc="http://purl.org/dc/elements/1.1/" xmlns:cc="http://creativecommons.org/ns#" xmlns:rdf="http://www.w3.org/1999/02/22-rdf-syntax-ns#" xmlns:svg="http://www.w3.org/2000/svg" xmlns="http://www.w3.org/2000/svg" id="svg2" version="1.1" xml:space="preserve" viewBox="0 0 250 64" preserveAspectRatio="xMinYMin meet">
  <metadata id="metadata8">
    <rdf:RDF>
      <cc:Work rdf:about=""><dc:format>image/svg+xml</dc:format><dc:type rdf:resource="http://purl.org/dc/dcmitype/StillImage"/>
           <dc:title>Groupe d’études et de recherche en analyse des décisions</dc:title></cc:Work>
    </rdf:RDF>
  </metadata>
  <g id="g10" transform="matrix(1.25,0,0,-1.25,-269.9035,692.48312)">
    <g transform="translate(260.9438,509.3325)" id="g20">
      <path id="path22" style="fill:#135c9e;fill-opacity:1;fill-rule:nonzero;stroke:none" d="m 0,0 -4.19,0 0,10.465 C -6.751,4.226 -12.59,0.019 -20.158,0.019 c -10.28,0 -18.563,8.868 -18.563,19.05 0,10.572 8.477,19.246 19.05,19.246 5.7,0 11.352,-2.583 14.957,-7.113 L -7.93,28.131 c -2.631,3.605 -7.064,5.994 -11.547,5.994 -8.233,0 -14.664,-6.675 -14.664,-14.909 0,-7.698 6.334,-15.005 14.274,-15.005 5.701,0 11.84,4.92 12.034,10.913 l -9.5,0 0,4.189 L 0,19.313 0,0 z m -45.021,-6.184 50.838,0 0,50.838 -50.838,0 0,-50.838 z"/>
    </g>
    <g transform="translate(272.5781,547.6675)" id="g24">
      <path id="path26" style="fill:#135c9e;fill-opacity:1;fill-rule:nonzero;stroke:none" d="m 0,0 20.591,0 0,-4.373 -15.812,0 0,-12.462 15.812,0 0,-4.373 -15.812,0 0,-12.755 15.812,0 0,-4.372 L 0,-38.335 0,0 z"/>
    </g>
    <g transform="translate(304.3027,530.874)" id="g28">
      <path id="path30" style="fill:#135c9e;fill-opacity:1;fill-rule:nonzero;stroke:none" d="m 0,0 1.526,0 c 4.881,0 10.169,-0.442 10.169,5.659 0,6 -5.695,6.863 -10.422,6.863 L 0,12.522 0,0 z m 19.066,-21.542 -5.795,0 -11.287,17.137 -1.984,0 0,-17.137 -4.779,0 0,38.335 5.797,0 c 3.407,0 7.068,-0.05 10.119,-1.779 3.202,-1.882 5.033,-5.492 5.033,-9.151 0,-5.491 -3.661,-8.71 -9.203,-9.371 l 12.099,-18.034 z"/>
    </g>
    <g transform="translate(344.8496,537.6221)" id="g32">
      <path id="path34" style="fill:#135c9e;fill-opacity:1;fill-rule:nonzero;stroke:none" d="m 0,0 -6.813,-14.872 13.626,0 L 0,0 z m -8.795,-19.067 -4.373,-9.215 -5.134,0 L 0,10.045 l 18.304,-38.327 -5.135,0 -4.372,9.215 -17.592,0 z"/>
    </g>
    <g transform="translate(371.1113,513.7236)" id="g36">
      <path id="path38" style="fill:#135c9e;fill-opacity:1;fill-rule:nonzero;stroke:none" d="m 0,0 1.679,0 c 9.759,0 18.2,3.662 18.2,14.797 0,11.184 -8.441,14.795 -18.2,14.795 L 0,29.592 0,0 z m -4.781,33.963 7.933,0 C 14.896,33.963 24.656,27.762 24.656,15 24.656,1.934 15.099,-4.372 2.998,-4.372 l -7.779,0 0,38.335 z"/>
    </g>
  </g>
</svg>
