<?xml version="1.0" encoding="UTF-8" standalone="no"?>
<svg
   xmlns:dc="http://purl.org/dc/elements/1.1/"
   xmlns:cc="http://creativecommons.org/ns#"
   xmlns:rdf="http://www.w3.org/1999/02/22-rdf-syntax-ns#"
   xmlns:svg="http://www.w3.org/2000/svg"
   xmlns="http://www.w3.org/2000/svg"
   xmlns:sodipodi="http://sodipodi.sourceforge.net/DTD/sodipodi-0.dtd"
   xmlns:inkscape="http://www.inkscape.org/namespaces/inkscape"
   version="1.1"
   id="svg2"
   inkscape:version="0.48.4 r9939"
   width="924.41064"
   height="350"
   sodipodi:docname="BvsG_1D.svg">
  <metadata
     id="metadata124">
    <rdf:RDF>
      <cc:Work
         rdf:about="">
        <dc:format>image/svg+xml</dc:format>
        <dc:type
           rdf:resource="http://purl.org/dc/dcmitype/StillImage" />
      </cc:Work>
    </rdf:RDF>
  </metadata>
  <defs
     id="defs122" />
  <sodipodi:namedview
     pagecolor="#ffffff"
     bordercolor="#666666"
     borderopacity="1"
     objecttolerance="10"
     gridtolerance="10"
     guidetolerance="10"
     inkscape:pageopacity="0"
     inkscape:pageshadow="2"
     inkscape:window-width="640"
     inkscape:window-height="480"
     id="namedview120"
     showgrid="false"
     fit-margin-top="0"
     fit-margin-left="0"
     fit-margin-right="0"
     fit-margin-bottom="0"
     inkscape:zoom="0.31714784"
     inkscape:cx="646.97706"
     inkscape:cy="157.81787"
     inkscape:window-x="409"
     inkscape:window-y="441"
     inkscape:window-maximized="0"
     inkscape:current-layer="svg2" />
  <svg
     version="1.1"
     id="svg4"
     inkscape:version="0.48.4 r9939"
     width="100%"
     height="100%"
     transform="translate(3.1531036,-81.980694)">
    <line
       y1="260"
       x2="275"
       style="stroke:#000000;stroke-width:2"
       x1="10"
       y2="176.66667"
       id="line6" />
    <text
       style="font-size:40px;fill:#00ff00;stroke:#000000;stroke-width:0.5;font-family:arial"
       y="228.33333"
       x="127.5"
       id="text8">1/6</text>
    <g
       transform="translate(285,151.66667)"
       id="g10">
      <rect
         style="fill:#00ff00"
         height="50"
         width="50"
         id="rect12"
         x="0"
         y="0" />
    </g>
    <line
       y1="176.66667"
       x2="575"
       style="stroke:#000000;stroke-width:2"
       x1="345"
       y2="110"
       id="line14" />
    <text
       style="font-size:40px;fill:#2578e9;stroke:#000000;stroke-width:0.5;font-family:arial"
       y="153.33333"
       x="445"
       id="text16">3/6</text>
    <g
       transform="translate(585,85)"
       id="g18">
      <rect
         style="fill:#2578e9"
         height="50"
         width="50"
         id="rect20"
         x="0"
         y="0" />
      <ellipse
         cy="12.5"
         cx="12.5"
         rx="5"
         ry="5"
         style="fill:#ffffff"
         id="ellipse22"
         d="m 17.5,12.5 c 0,2.761424 -2.238576,5 -5,5 -2.7614237,0 -5,-2.238576 -5,-5 0,-2.7614237 2.2385763,-5 5,-5 2.761424,0 5,2.2385763 5,5 z"
         sodipodi:cx="12.5"
         sodipodi:cy="12.5"
         sodipodi:rx="5"
         sodipodi:ry="5" />
      <ellipse
         cy="37.5"
         cx="37.5"
         rx="5"
         ry="5"
         style="fill:#ffffff"
         id="ellipse24"
         d="m 42.5,37.5 c 0,2.761424 -2.238576,5 -5,5 -2.761424,0 -5,-2.238576 -5,-5 0,-2.761424 2.238576,-5 5,-5 2.761424,0 5,2.238576 5,5 z"
         sodipodi:cx="37.5"
         sodipodi:cy="37.5"
         sodipodi:rx="5"
         sodipodi:ry="5" />
    </g>
    <text
       style="font-size:50px;font-family:arial"
       y="128"
       x="645"
       id="text26">=</text>
    <text
       style="font-size:40px;fill:#2578e9;font-family:arial"
       y="123"
       x="685"
       id="text28">3/36</text>
    <line
       y1="176.66667"
       x2="575"
       style="stroke:#000000;stroke-width:2"
       x1="345"
       y2="210"
       id="line30" />
    <text
       style="font-size:40px;fill:#2578e9;stroke:#000000;stroke-width:0.5;font-family:arial"
       y="203.33333"
       x="445"
       id="text32">3/6</text>
    <g
       transform="translate(585,185)"
       id="g34">
      <rect
         style="fill:#2578e9"
         height="50"
         width="50"
         id="rect36"
         x="0"
         y="0" />
      <ellipse
         cy="12.5"
         cx="12.5"
         rx="5"
         ry="5"
         style="fill:#ffffff"
         id="ellipse38"
         d="m 17.5,12.5 c 0,2.761424 -2.238576,5 -5,5 -2.7614237,0 -5,-2.238576 -5,-5 0,-2.7614237 2.2385763,-5 5,-5 2.761424,0 5,2.2385763 5,5 z"
         sodipodi:cx="12.5"
         sodipodi:cy="12.5"
         sodipodi:rx="5"
         sodipodi:ry="5" />
      <ellipse
         cy="25"
         cx="12.5"
         rx="5"
         ry="5"
         style="fill:#ffffff"
         id="ellipse40"
         d="m 17.5,25 c 0,2.761424 -2.238576,5 -5,5 -2.7614237,0 -5,-2.238576 -5,-5 0,-2.761424 2.2385763,-5 5,-5 2.761424,0 5,2.238576 5,5 z"
         sodipodi:cx="12.5"
         sodipodi:cy="25"
         sodipodi:rx="5"
         sodipodi:ry="5" />
      <ellipse
         cy="37.5"
         cx="12.5"
         rx="5"
         ry="5"
         style="fill:#ffffff"
         id="ellipse42"
         d="m 17.5,37.5 c 0,2.761424 -2.238576,5 -5,5 -2.7614237,0 -5,-2.238576 -5,-5 0,-2.761424 2.2385763,-5 5,-5 2.761424,0 5,2.238576 5,5 z"
         sodipodi:cx="12.5"
         sodipodi:cy="37.5"
         sodipodi:rx="5"
         sodipodi:ry="5" />
      <ellipse
         cy="12.5"
         cx="37.5"
         rx="5"
         ry="5"
         style="fill:#ffffff"
         id="ellipse44"
         d="m 42.5,12.5 c 0,2.761424 -2.238576,5 -5,5 -2.761424,0 -5,-2.238576 -5,-5 0,-2.7614237 2.238576,-5 5,-5 2.761424,0 5,2.2385763 5,5 z"
         sodipodi:cx="37.5"
         sodipodi:cy="12.5"
         sodipodi:rx="5"
         sodipodi:ry="5" />
      <ellipse
         cy="25"
         cx="37.5"
         rx="5"
         ry="5"
         style="fill:#ffffff"
         id="ellipse46"
         d="m 42.5,25 c 0,2.761424 -2.238576,5 -5,5 -2.761424,0 -5,-2.238576 -5,-5 0,-2.761424 2.238576,-5 5,-5 2.761424,0 5,2.238576 5,5 z"
         sodipodi:cx="37.5"
         sodipodi:cy="25"
         sodipodi:rx="5"
         sodipodi:ry="5" />
      <ellipse
         cy="37.5"
         cx="37.5"
         rx="5"
         ry="5"
         style="fill:#ffffff"
         id="ellipse48"
         d="m 42.5,37.5 c 0,2.761424 -2.238576,5 -5,5 -2.761424,0 -5,-2.238576 -5,-5 0,-2.761424 2.238576,-5 5,-5 2.761424,0 5,2.238576 5,5 z"
         sodipodi:cx="37.5"
         sodipodi:cy="37.5"
         sodipodi:rx="5"
         sodipodi:ry="5" />
      <ellipse
         cy="25"
         cx="25"
         rx="5"
         ry="5"
         style="fill:#ffffff"
         id="ellipse50"
         d="m 30,25 c 0,2.761424 -2.238576,5 -5,5 -2.761424,0 -5,-2.238576 -5,-5 0,-2.761424 2.238576,-5 5,-5 2.761424,0 5,2.238576 5,5 z"
         sodipodi:cx="25"
         sodipodi:cy="25"
         sodipodi:rx="5"
         sodipodi:ry="5" />
    </g>
    <text
       style="font-size:50px;font-family:arial"
       y="228"
       x="645"
       id="text52">=</text>
    <text
       style="font-size:40px;fill:#2578e9;font-family:arial"
       y="223"
       x="685"
       id="text54">3/36</text>
    <line
       y1="260"
       x2="275"
       style="stroke:#000000;stroke-width:2"
       x1="10"
       y2="343.33334"
       id="line56" />
    <text
       style="font-size:40px;fill:#00ff00;stroke:#000000;stroke-width:0.5;font-family:arial"
       y="311.66666"
       x="127.5"
       id="text58">5/6</text>
    <g
       transform="translate(285,318.33333)"
       id="g60">
      <rect
         style="fill:#00ff00"
         height="50"
         width="50"
         id="rect62"
         x="0"
         y="0" />
      <ellipse
         cy="12.5"
         cx="12.5"
         rx="5"
         ry="5"
         style="fill:#ffffff"
         id="ellipse64"
         d="m 17.5,12.5 c 0,2.761424 -2.238576,5 -5,5 -2.7614237,0 -5,-2.238576 -5,-5 0,-2.7614237 2.2385763,-5 5,-5 2.761424,0 5,2.2385763 5,5 z"
         sodipodi:cx="12.5"
         sodipodi:cy="12.5"
         sodipodi:rx="5"
         sodipodi:ry="5" />
      <ellipse
         cy="37.5"
         cx="12.5"
         rx="5"
         ry="5"
         style="fill:#ffffff"
         id="ellipse66"
         d="m 17.5,37.5 c 0,2.761424 -2.238576,5 -5,5 -2.7614237,0 -5,-2.238576 -5,-5 0,-2.761424 2.2385763,-5 5,-5 2.761424,0 5,2.238576 5,5 z"
         sodipodi:cx="12.5"
         sodipodi:cy="37.5"
         sodipodi:rx="5"
         sodipodi:ry="5" />
      <ellipse
         cy="12.5"
         cx="37.5"
         rx="5"
         ry="5"
         style="fill:#ffffff"
         id="ellipse68"
         d="m 42.5,12.5 c 0,2.761424 -2.238576,5 -5,5 -2.761424,0 -5,-2.238576 -5,-5 0,-2.7614237 2.238576,-5 5,-5 2.761424,0 5,2.2385763 5,5 z"
         sodipodi:cx="37.5"
         sodipodi:cy="12.5"
         sodipodi:rx="5"
         sodipodi:ry="5" />
      <ellipse
         cy="37.5"
         cx="37.5"
         rx="5"
         ry="5"
         style="fill:#ffffff"
         id="ellipse70"
         d="m 42.5,37.5 c 0,2.761424 -2.238576,5 -5,5 -2.761424,0 -5,-2.238576 -5,-5 0,-2.761424 2.238576,-5 5,-5 2.761424,0 5,2.238576 5,5 z"
         sodipodi:cx="37.5"
         sodipodi:cy="37.5"
         sodipodi:rx="5"
         sodipodi:ry="5" />
      <ellipse
         cy="25"
         cx="25"
         rx="5"
         ry="5"
         style="fill:#ffffff"
         id="ellipse72"
         d="m 30,25 c 0,2.761424 -2.238576,5 -5,5 -2.761424,0 -5,-2.238576 -5,-5 0,-2.761424 2.238576,-5 5,-5 2.761424,0 5,2.238576 5,5 z"
         sodipodi:cx="25"
         sodipodi:cy="25"
         sodipodi:rx="5"
         sodipodi:ry="5" />
    </g>
    <line
       y1="343.33334"
       x2="575"
       style="stroke:#000000;stroke-width:2"
       x1="345"
       y2="310"
       id="line74" />
    <text
       style="font-size:40px;fill:#2578e9;stroke:#000000;stroke-width:0.5;font-family:arial"
       y="336.66666"
       x="445"
       id="text76">3/6</text>
    <g
       transform="translate(585,285)"
       id="g78">
      <rect
         style="fill:#2578e9"
         height="50"
         width="50"
         id="rect80"
         x="0"
         y="0" />
      <ellipse
         cy="12.5"
         cx="12.5"
         rx="5"
         ry="5"
         style="fill:#ffffff"
         id="ellipse82"
         d="m 17.5,12.5 c 0,2.761424 -2.238576,5 -5,5 -2.7614237,0 -5,-2.238576 -5,-5 0,-2.7614237 2.2385763,-5 5,-5 2.761424,0 5,2.2385763 5,5 z"
         sodipodi:cx="12.5"
         sodipodi:cy="12.5"
         sodipodi:rx="5"
         sodipodi:ry="5" />
      <ellipse
         cy="37.5"
         cx="37.5"
         rx="5"
         ry="5"
         style="fill:#ffffff"
         id="ellipse84"
         d="m 42.5,37.5 c 0,2.761424 -2.238576,5 -5,5 -2.761424,0 -5,-2.238576 -5,-5 0,-2.761424 2.238576,-5 5,-5 2.761424,0 5,2.238576 5,5 z"
         sodipodi:cx="37.5"
         sodipodi:cy="37.5"
         sodipodi:rx="5"
         sodipodi:ry="5" />
    </g>
    <text
       style="font-size:50px;font-family:arial"
       y="328"
       x="645"
       id="text86">=</text>
    <text
       style="font-size:40px;fill:#00ff00;font-family:arial"
       y="323"
       x="685"
       id="text88">15/36</text>
    <line
       y1="343.33334"
       x2="575"
       style="stroke:#000000;stroke-width:2"
       x1="345"
       y2="410"
       id="line90" />
    <text
       style="font-size:40px;fill:#2578e9;stroke:#000000;stroke-width:0.5;font-family:arial"
       y="386.66666"
       x="445"
       id="text92">3/6</text>
    <g
       transform="translate(585,385)"
       id="g94">
      <rect
         style="fill:#2578e9"
         height="50"
         width="50"
         id="rect96"
         x="0"
         y="0" />
      <ellipse
         cy="12.5"
         cx="12.5"
         rx="5"
         ry="5"
         style="fill:#ffffff"
         id="ellipse98"
         d="m 17.5,12.5 c 0,2.761424 -2.238576,5 -5,5 -2.7614237,0 -5,-2.238576 -5,-5 0,-2.7614237 2.2385763,-5 5,-5 2.761424,0 5,2.2385763 5,5 z"
         sodipodi:cx="12.5"
         sodipodi:cy="12.5"
         sodipodi:rx="5"
         sodipodi:ry="5" />
      <ellipse
         cy="25"
         cx="12.5"
         rx="5"
         ry="5"
         style="fill:#ffffff"
         id="ellipse100"
         d="m 17.5,25 c 0,2.761424 -2.238576,5 -5,5 -2.7614237,0 -5,-2.238576 -5,-5 0,-2.761424 2.2385763,-5 5,-5 2.761424,0 5,2.238576 5,5 z"
         sodipodi:cx="12.5"
         sodipodi:cy="25"
         sodipodi:rx="5"
         sodipodi:ry="5" />
      <ellipse
         cy="37.5"
         cx="12.5"
         rx="5"
         ry="5"
         style="fill:#ffffff"
         id="ellipse102"
         d="m 17.5,37.5 c 0,2.761424 -2.238576,5 -5,5 -2.7614237,0 -5,-2.238576 -5,-5 0,-2.761424 2.2385763,-5 5,-5 2.761424,0 5,2.238576 5,5 z"
         sodipodi:cx="12.5"
         sodipodi:cy="37.5"
         sodipodi:rx="5"
         sodipodi:ry="5" />
      <ellipse
         cy="12.5"
         cx="37.5"
         rx="5"
         ry="5"
         style="fill:#ffffff"
         id="ellipse104"
         d="m 42.5,12.5 c 0,2.761424 -2.238576,5 -5,5 -2.761424,0 -5,-2.238576 -5,-5 0,-2.7614237 2.238576,-5 5,-5 2.761424,0 5,2.2385763 5,5 z"
         sodipodi:cx="37.5"
         sodipodi:cy="12.5"
         sodipodi:rx="5"
         sodipodi:ry="5" />
      <ellipse
         cy="25"
         cx="37.5"
         rx="5"
         ry="5"
         style="fill:#ffffff"
         id="ellipse106"
         d="m 42.5,25 c 0,2.761424 -2.238576,5 -5,5 -2.761424,0 -5,-2.238576 -5,-5 0,-2.761424 2.238576,-5 5,-5 2.761424,0 5,2.238576 5,5 z"
         sodipodi:cx="37.5"
         sodipodi:cy="25"
         sodipodi:rx="5"
         sodipodi:ry="5" />
      <ellipse
         cy="37.5"
         cx="37.5"
         rx="5"
         ry="5"
         style="fill:#ffffff"
         id="ellipse108"
         d="m 42.5,37.5 c 0,2.761424 -2.238576,5 -5,5 -2.761424,0 -5,-2.238576 -5,-5 0,-2.761424 2.238576,-5 5,-5 2.761424,0 5,2.238576 5,5 z"
         sodipodi:cx="37.5"
         sodipodi:cy="37.5"
         sodipodi:rx="5"
         sodipodi:ry="5" />
      <ellipse
         cy="25"
         cx="25"
         rx="5"
         ry="5"
         style="fill:#ffffff"
         id="ellipse110"
         d="m 30,25 c 0,2.761424 -2.238576,5 -5,5 -2.761424,0 -5,-2.238576 -5,-5 0,-2.761424 2.238576,-5 5,-5 2.761424,0 5,2.238576 5,5 z"
         sodipodi:cx="25"
         sodipodi:cy="25"
         sodipodi:rx="5"
         sodipodi:ry="5" />
    </g>
    <text
       style="font-size:50px;font-family:arial"
       y="428"
       x="645"
       id="text112">=</text>
    <text
       style="font-size:40px;fill:#2578e9;font-family:arial"
       y="423"
       x="685"
       id="text114">15/36</text>
    <text
       style="font-size:40px;text-decoration: underline;fill:#2578e9;font-family:arial"
       y="171.66667"
       x="835"
       id="text116">21/36</text>
    <text
       style="font-size:40px;fill:#00ff00;font-family:arial"
       y="338.33334"
       x="835"
       id="text118">15/36</text>
  </svg>
</svg>
