<?xml version="1.0" encoding="ISO-8859-1" standalone="no"?><svg xmlns="http://www.w3.org/2000/svg" version="1.1" xmlns:xlink="http://www.w3.org/1999/xlink"  >
<svg xmlns="http://www.w3.org/2000/svg" version="1.1" xmlns:xlink="http://www.w3.org/1999/xlink"  >
<line y1="260.0" x2="275.0" style="stroke:rgb(0,0,0);stroke-width:2" x1="10.0" y2="176.666666667"  />
<text style="font-size:40;font-family:arial;fill:rgb(0,255,0);stroke:rgb(0,0,0);stroke-width:0.5" y="228.333333333" x="127.5"  >
1/6</text>
<g transform="translate(285.0,151.666666667)"  >
<rect style="fill:rgb(0, 255, 0);None" height="50" width="50"  />
</g>
<line y1="176.666666667" x2="575.0" style="stroke:rgb(0,0,0);stroke-width:2" x1="345.0" y2="110.0"  />
<text style="font-size:40;font-family:arial;fill:rgb(147,28,203);stroke:rgb(0,0,0);stroke-width:0.5" y="153.333333333" x="445.0"  >
2/6</text>
<g transform="translate(585.0,85.0)"  >
<rect style="fill:rgb(147, 28, 203);None" height="50" width="50"  />
<ellipse cy="25.0" cx="25.0" rx="5.0" ry="5.0" style="fill:rgb(255, 255, 255)"  />
</g>
<text style="font-size:50;font-family:arial;" y="128.0" x="645.0"  >
=</text>
<text style="fill:rgb(147,28,203);font-size:40;font-family:arial;" y="123.0" x="685.0"  >
2/36</text>
<line y1="176.666666667" x2="575.0" style="stroke:rgb(0,0,0);stroke-width:2" x1="345.0" y2="210.0"  />
<text style="font-size:40;font-family:arial;fill:rgb(147,28,203);stroke:rgb(0,0,0);stroke-width:0.5" y="203.333333333" x="445.0"  >
4/6</text>
<g transform="translate(585.0,185.0)"  >
<rect style="fill:rgb(147, 28, 203);None" height="50" width="50"  />
<ellipse cy="12.5" cx="12.5" rx="5.0" ry="5.0" style="fill:rgb(255, 255, 255)"  />
<ellipse cy="25.0" cx="12.5" rx="5.0" ry="5.0" style="fill:rgb(255, 255, 255)"  />
<ellipse cy="37.5" cx="12.5" rx="5.0" ry="5.0" style="fill:rgb(255, 255, 255)"  />
<ellipse cy="12.5" cx="37.5" rx="5.0" ry="5.0" style="fill:rgb(255, 255, 255)"  />
<ellipse cy="25.0" cx="37.5" rx="5.0" ry="5.0" style="fill:rgb(255, 255, 255)"  />
<ellipse cy="37.5" cx="37.5" rx="5.0" ry="5.0" style="fill:rgb(255, 255, 255)"  />
</g>
<text style="font-size:50;font-family:arial;" y="228.0" x="645.0"  >
=</text>
<text style="fill:rgb(147,28,203);font-size:40;font-family:arial;" y="223.0" x="685.0"  >
4/36</text>
<line y1="260.0" x2="275.0" style="stroke:rgb(0,0,0);stroke-width:2" x1="10.0" y2="343.333333333"  />
<text style="font-size:40;font-family:arial;fill:rgb(0,255,0);stroke:rgb(0,0,0);stroke-width:0.5" y="311.666666667" x="127.5"  >
5/6</text>
<g transform="translate(285.0,318.333333333)"  >
<rect style="fill:rgb(0, 255, 0);None" height="50" width="50"  />
<ellipse cy="12.5" cx="12.5" rx="5.0" ry="5.0" style="fill:rgb(255, 255, 255)"  />
<ellipse cy="37.5" cx="12.5" rx="5.0" ry="5.0" style="fill:rgb(255, 255, 255)"  />
<ellipse cy="12.5" cx="37.5" rx="5.0" ry="5.0" style="fill:rgb(255, 255, 255)"  />
<ellipse cy="37.5" cx="37.5" rx="5.0" ry="5.0" style="fill:rgb(255, 255, 255)"  />
<ellipse cy="25.0" cx="25.0" rx="5.0" ry="5.0" style="fill:rgb(255, 255, 255)"  />
</g>
<line y1="343.333333333" x2="575.0" style="stroke:rgb(0,0,0);stroke-width:2" x1="345.0" y2="310.0"  />
<text style="font-size:40;font-family:arial;fill:rgb(147,28,203);stroke:rgb(0,0,0);stroke-width:0.5" y="336.666666667" x="445.0"  >
2/6</text>
<g transform="translate(585.0,285.0)"  >
<rect style="fill:rgb(147, 28, 203);None" height="50" width="50"  />
<ellipse cy="25.0" cx="25.0" rx="5.0" ry="5.0" style="fill:rgb(255, 255, 255)"  />
</g>
<text style="font-size:50;font-family:arial;" y="328.0" x="645.0"  >
=</text>
<text style="fill:rgb(0,255,0);font-size:40;font-family:arial;" y="323.0" x="685.0"  >
10/36</text>
<line y1="343.333333333" x2="575.0" style="stroke:rgb(0,0,0);stroke-width:2" x1="345.0" y2="410.0"  />
<text style="font-size:40;font-family:arial;fill:rgb(147,28,203);stroke:rgb(0,0,0);stroke-width:0.5" y="386.666666667" x="445.0"  >
4/6</text>
<g transform="translate(585.0,385.0)"  >
<rect style="fill:rgb(147, 28, 203);None" height="50" width="50"  />
<ellipse cy="12.5" cx="12.5" rx="5.0" ry="5.0" style="fill:rgb(255, 255, 255)"  />
<ellipse cy="25.0" cx="12.5" rx="5.0" ry="5.0" style="fill:rgb(255, 255, 255)"  />
<ellipse cy="37.5" cx="12.5" rx="5.0" ry="5.0" style="fill:rgb(255, 255, 255)"  />
<ellipse cy="12.5" cx="37.5" rx="5.0" ry="5.0" style="fill:rgb(255, 255, 255)"  />
<ellipse cy="25.0" cx="37.5" rx="5.0" ry="5.0" style="fill:rgb(255, 255, 255)"  />
<ellipse cy="37.5" cx="37.5" rx="5.0" ry="5.0" style="fill:rgb(255, 255, 255)"  />
</g>
<text style="font-size:50;font-family:arial;" y="428.0" x="645.0"  >
=</text>
<text style="fill:rgb(147,28,203);font-size:40;font-family:arial;" y="423.0" x="685.0"  >
20/36</text>
<text style="fill:rgb(147,28,203);font-size:40;font-family:arial;text-decoration:underline" y="171.666666667" x="835.0"  >
26/36</text>
<text style="fill:rgb(0,255,0);font-size:40;font-family:arial" y="338.333333333" x="835.0"  >
10/36</text>
</svg>
</svg>
